<svg width="643" height="218" viewBox="0 0 643 218" fill="none" xmlns="http://www.w3.org/2000/svg">
<g clip-path="url(#clip0_8_2)">
<path d="M0.333801 109.31V217.666H121.668H243.002V109.31V0.953931H121.668H0.333801V109.31ZM229.313 35.2652L229.668 55.6209L234.646 65.5765C242.202 80.421 242.202 100.332 234.646 115.088L229.668 124.955V164.688V204.333H121.668H13.6672V109.932C13.6672 57.932 13.9339 15.1762 14.2005 14.9096C14.5561 14.554 63.0008 14.4651 121.934 14.6429L229.046 14.9096L229.313 35.2652Z" fill="#0b1f17"/>
<path d="M71.9786 52.6875C69.4008 58.732 56.0674 89.4877 42.3785 120.955C28.6895 152.51 17.1339 179.088 16.6895 180.066C16.1561 181.399 19.445 181.666 32.334 181.399L48.6896 180.955L54.023 166.021L59.3563 150.999H67.623C72.1564 150.999 82.2009 150.644 89.7565 150.11L103.712 149.31L107.712 165.133L111.712 180.955L138.735 181.399L165.757 181.755L164.957 171.355C161.49 127.443 160.957 116.332 162.29 116.777C164.335 117.399 166.824 125.577 166.912 131.888C167.001 138.021 168.512 138.91 178.379 138.999C225.313 139.177 249.757 86.021 216.602 56.0653C203.001 43.7986 194.024 41.6652 155.979 41.6652H125.49L126.29 50.0208C127.357 61.3098 130.912 112.777 131.712 128.332C132.512 144.066 132.69 144.688 118.29 92.3322C111.89 69.2209 106.112 48.4208 105.401 46.0208L104.245 41.6652H90.4676H76.6898L71.9786 52.6875ZM187.09 68.6876C210.202 84.2432 197.579 114.999 167.979 114.999H160.335V96.51C160.335 86.3766 159.979 75.2654 159.446 71.8876L158.646 65.6654H170.646C180.868 65.6654 183.268 66.1098 187.09 68.6876ZM94.201 117.932C95.3565 122.021 96.3343 125.755 96.3343 126.199C96.3343 126.643 91.8898 126.999 86.4676 126.999C76.8675 126.999 76.6009 127.088 73.1342 131.532C67.5342 138.91 61.1341 139.888 64.7786 132.777C65.7564 130.732 70.5564 118.821 75.2675 106.288C80.0676 93.8433 84.4231 82.4654 84.9565 80.9543C85.6676 79.0877 86.912 83.0877 88.9565 94.3766C90.6454 103.177 92.9565 113.843 94.201 117.932Z" fill="#0b1f17"/>
<path d="M334.824 65.6654C334.735 66.021 334.735 85.4877 334.824 108.955L334.913 151.621H340.424H345.936L346.38 108.777L346.736 65.9321L340.869 65.4876C337.669 65.2209 334.913 65.3098 334.824 65.6654Z" fill="#0b1f17"/>
<path d="M292.78 98.2878C273.046 107.443 272.246 140.244 291.535 149.577C297.935 152.688 311.802 153.31 318.913 150.821C324.602 148.866 324.691 140.599 319.002 141.488C298.735 144.599 290.824 140.155 289.935 125.399C288.957 109.221 302.558 99.3544 316.958 105.843C320.958 107.71 321.402 107.443 322.469 102.11C323.98 94.4655 305.846 92.1544 292.78 98.2878Z" fill="#0b1f17"/>
<path d="M374.38 96.7766C346.38 109.488 355.713 152.332 386.38 152.332C400.425 152.332 406.114 150.199 405.136 145.221C404.069 139.888 403.625 139.621 399.625 141.488C389.847 145.932 374.825 142.11 371.536 134.288C367.891 125.488 367.625 125.666 389.047 125.666H408.336V119.355C408.247 101.31 390.469 89.4877 374.38 96.7766ZM390.114 104.51C393.402 105.932 395.447 108.954 397.047 114.643C397.847 117.666 397.758 117.666 383.802 117.666C368.425 117.666 368.247 117.488 372.691 110.91C377.491 103.71 383.625 101.488 390.114 104.51Z" fill="#0b1f17"/>
<path d="M424.691 97.6655C420.336 99.6211 419.18 100.777 419.803 102.554C420.247 103.888 420.78 105.754 421.047 106.643C421.403 107.888 422.736 107.71 426.469 106.199C438.114 101.31 448.336 104.599 448.336 113.221C448.336 117.488 448.158 117.666 443.269 117.666C424.691 117.666 413.047 128.688 416.691 142.91C419.091 152.155 435.092 155.621 444.78 149.132L449.492 145.844L449.936 148.777C450.292 151.088 451.358 151.71 455.803 152.066L461.314 152.51L460.781 138.732C459.714 108.421 459.447 106.288 456.958 102.466C451.981 94.91 435.98 92.51 424.691 97.6655ZM448.603 130.999C447.714 144.421 430.558 149.755 427.625 137.488C426.38 132.421 431.447 127.266 439.003 125.755C448.425 123.888 448.958 124.243 448.603 130.999Z" fill="#0b1f17"/>
<path d="M494.381 97.0433C492.158 98.1989 489.314 100.332 487.981 101.843C485.67 104.599 485.67 104.599 485.67 100.51C485.67 96.51 485.492 96.3322 479.981 96.3322H474.381L474.736 124.332L475.092 152.332H481.047H487.003V132.51C487.003 110.732 488.336 107.088 496.87 104.866C508.247 102.021 511.003 107.532 511.003 132.955V152.332H517.136H523.27L522.825 130.021C522.292 105.488 521.225 101.666 513.581 97.2211C508.959 94.4655 499.625 94.3766 494.381 97.0433Z" fill="#0b1f17"/>
<path d="M550.292 97.4878C521.759 110.466 531.003 152.332 562.47 152.332C575.448 152.332 580.603 149.755 578.914 144.066C578.203 141.666 577.67 139.532 577.67 139.266C577.67 139.088 575.803 139.888 573.492 141.132C563.892 146.021 551.448 142.021 547.448 132.688C539.981 115.088 555.359 98.91 573.137 105.754C577.403 107.354 579.27 105.577 578.648 100.421C578.114 94.7322 560.337 92.9544 550.292 97.4878Z" fill="#0b1f17"/>
<path d="M602.292 97.4878C582.114 106.643 581.314 140.155 600.959 149.666C614.559 156.244 632.87 150.999 639.093 138.91C652.337 112.777 628.337 85.6655 602.292 97.4878ZM625.315 108.866C639.448 124.866 623.359 152.332 606.47 141.221C596.692 134.821 596.337 113.132 605.937 106.377C611.537 102.466 620.781 103.71 625.315 108.866Z" fill="#0b1f17"/>
</g>
<defs>
<clipPath id="clip0_8_2">
<rect width="643" height="218" fill="white"/>
</clipPath>
</defs>
</svg>
