<svg width="805" height="209" viewBox="0 0 805 209" fill="none" xmlns="http://www.w3.org/2000/svg">
<g clip-path="url(#clip0_3_12)">
<path d="M538.08 57.1027C564.223 54.79 587.321 74.0264 589.759 100.143C592.197 126.259 573.062 149.435 546.941 151.997C520.649 154.576 497.27 135.291 494.814 108.999C492.358 82.706 511.767 59.4311 538.08 57.1027ZM544.701 142.525C565.598 141.193 581.492 123.238 580.266 102.345C579.04 81.4538 561.161 65.4763 540.251 66.5924C519.191 67.7169 503.06 85.7497 504.294 106.795C505.529 127.84 523.654 143.867 544.701 142.525Z" fill="#262829"/>
<path d="M199.315 58.8682C209.167 58.7048 219.439 58.8454 229.326 58.8374C228.715 88.7877 229.222 120.544 229.218 150.616C225.112 150.026 212.534 150.197 208.222 150.439C209.025 133.046 208.39 110.346 208.397 92.5497L208.608 83.6597C204.303 92.4935 175.903 149.199 173.107 151.495L171.533 151.15C169.678 149.897 139.369 90.3626 136.501 83.6184C135.914 105.105 136.402 128.868 136.391 150.533C132.216 150.059 120.363 150.162 116.176 150.499L116.169 58.8418L145.569 58.8726C151.417 72.3254 159.177 85.5697 165.379 98.9422C167.622 103.782 170.277 108.991 172.921 113.6C177.249 103.273 182.624 93.7567 187.429 83.676C191.373 75.4033 196.013 67.4179 199.315 58.8682Z" fill="#262829"/>
<path d="M245.932 58.8261C262.939 58.9525 287.893 56.0937 301.404 65.5009C307.288 69.5206 311.294 75.7489 312.51 82.768C314.002 91.1328 312.832 101.01 307.761 107.954C300.785 117.507 293.905 119.215 283.025 121.137C277.621 121.513 272.888 121.568 267.463 121.591C267.298 131.122 267.659 140.953 267.239 150.437C261.303 150.125 251.823 150.086 245.939 150.494L245.932 58.8261ZM266.869 104.462C274.729 104.505 281.003 105.239 287.429 100.244C290.209 97.7808 291.745 95.1332 291.944 91.3809C292.753 76.1709 277.413 76.6398 266.876 76.8628L266.869 104.462Z" fill="#262829"/>
<path d="M27.3151 57.6981C36.5254 55.742 49.7122 59.6941 57.9793 63.7582C58.4467 69.4899 58.137 78.8589 58.094 84.8475C50.5517 80.4163 31.5302 70.5226 23.2222 77.9654C11.6959 88.2911 40.2041 96.5343 46.7983 99.9007C50.0777 101.58 53.0869 103.741 55.7262 106.311C65.309 115.72 64.4695 133.861 55.17 143.1C49.3559 148.876 40.8393 151.84 32.7567 151.877C18.5191 151.947 13.8054 149.913 1.28897 144.254C0.884379 138.103 1.06976 129.143 1.35574 122.934C13.4175 130.071 20.7599 134.764 34.9813 133.733C37.7471 131.894 42.4893 128.783 41.721 124.874C40.0283 116.263 26.6913 114.119 19.9951 110.451C15.6237 108.63 12.0206 106.429 8.29883 103.556C-2.24122 95.4222 -2.42616 76.7483 6.1678 67.0008C12.1892 60.1714 18.1088 58.4379 27.3151 57.6981Z" fill="#262829"/>
<path d="M696.144 58.8419C700.831 58.7461 705.76 58.8076 710.469 58.7927C711.062 88.4584 710.649 120.584 710.504 150.387C707.715 150.186 703.998 150.268 701.134 150.256C701.692 124.554 701.178 97.2944 701.283 71.4596L701.235 70.1252L700.866 69.8886C699.346 71.8148 698.538 74.7193 697.387 76.934C691.079 89.0463 684.762 101.365 678.594 113.528L668.02 133.976C666.294 137.374 660.113 150.873 657.521 151.817C654.23 149.269 618.16 77.6268 614.259 69.2602C614.399 73.3274 614.457 77.7006 614.377 81.7625C613.943 104.453 615.058 127.631 614.272 150.272C611.1 150.212 608.631 150.141 605.486 150.466L605.543 58.8195C609.879 58.736 614.593 58.8353 618.955 58.8515C622.175 64.3786 625.927 72.4106 628.931 78.332L643.468 106.71C647.883 115.533 653.128 126.48 657.899 134.991C662.296 125.198 666.799 117.035 671.688 107.559C677.812 95.9815 683.65 84.2564 689.203 72.3939C691.645 67.266 694.312 64.5257 696.144 58.8419Z" fill="#262829"/>
<path d="M324.821 58.848L346.116 58.8409C345.83 82.6204 346.031 107.204 346.101 131.003C358.333 131.174 370.565 131.187 382.798 131.042C382.939 137.227 382.824 143.819 382.82 150.035C382.315 150.52 330.64 150.206 324.749 150.442C325.212 120.301 324.816 89.0884 324.821 58.848Z" fill="#262829"/>
<path d="M400.923 58.7444L410.096 58.8102L410.131 98.8838L470.003 98.8987C470.389 86.7276 470.319 71.0139 470.038 58.8138L479.413 58.7637C479.751 82.8716 479.193 107.098 479.474 131.219C479.54 137.124 479.777 143.983 479.325 149.833C478.341 150.474 476.272 150.255 474.998 150.228C473.513 150.186 471.54 150.347 470.016 150.428C470.403 139.867 470.543 118.45 469.814 108.06C464.143 107.361 450.48 107.585 444.26 107.64C433.721 107.732 420.393 107.224 410.153 108.092C409.806 121.75 410.096 136.664 410.087 150.423C407.544 150.136 403.401 150.24 400.721 150.235C399.79 130.579 400.976 110.005 400.537 90.2542C400.313 80.1682 400.304 68.7439 400.923 58.7444Z" fill="#262829"/>
<path d="M76.7351 58.8247L98.1153 58.8418C98.1245 88.6472 98.7821 121.013 97.9707 150.609C94.2894 150 80.4639 150.17 76.6697 150.563L76.7351 58.8247Z" fill="#262829"/>
<path d="M731.613 58.8339C747.928 58.5274 765.447 58.805 781.842 58.8006C783.296 62.3145 783.946 64.0686 784.86 67.7432C771.764 67.2119 754.438 67.5816 741.233 67.7138C740.934 78.0013 741.066 88.9497 741.066 99.2746L778.2 99.3228L778.191 108.024C765.878 107.971 753.564 107.994 741.251 108.091L741.141 113.391C740.891 122.473 741.088 132.488 741.185 141.596C755.053 142.117 770.978 141.749 785 141.75C784.043 145.428 783.718 146.805 782.202 150.334C765.755 149.9 748.126 150.223 731.595 150.233C731.024 120.692 731.353 88.4671 731.613 58.8339Z" fill="#262829"/>
<path d="M363.134 58.8388L382.838 58.8335L382.82 114.981C376.55 114.589 369.429 114.795 363.139 114.879L363.134 58.8388Z" fill="#262829"/>
<path d="M369.702 30.1607C374.895 28.4239 380.52 31.1918 382.311 36.3652C384.098 41.5386 381.384 47.187 376.226 49.0268C371.564 50.6891 366.388 48.6874 364.059 44.3221C362.676 41.7303 362.506 38.6615 363.593 35.9328C364.681 33.2041 366.915 31.0927 369.702 30.1607Z" fill="#262829"/>
<path d="M795.021 52.4674C798.895 51.3034 802.99 53.4632 804.215 57.3187C805.437 61.1742 803.341 65.2989 799.502 66.5832C796.967 67.4319 794.169 66.8484 792.183 65.0565C790.197 63.2647 789.336 60.5424 789.921 57.9343C790.509 55.3257 792.455 53.2366 795.021 52.4674ZM795.57 66.0945C798.992 66.2671 800.846 66.001 802.709 63.017C806.926 50.5363 792.693 51.2994 790.505 58.4247C790.153 59.5716 790.29 60.812 790.878 61.8565C791.691 63.3318 793.936 65.4824 795.57 66.0945Z" fill="#262829" fill-opacity="0.760784"/>
<path d="M794.379 55.0618C796.062 55.0886 797.63 54.9657 799.049 55.8724C800.56 58.3281 798.109 59.269 799.256 61.6651L800.929 62.6148C800.806 62.8572 800.459 63.0385 800.209 63.2071C797.889 62.8901 797.845 60.5331 795.987 60.0357C795.372 60.6587 795.566 60.7154 795.482 61.8381L795.104 63.2848L794.634 63.2721C794.173 61.01 794.344 57.4868 794.379 55.0618Z" fill="#262829" fill-opacity="0.866667"/>
<path d="M795.482 61.8381C795.565 60.7154 795.372 60.6588 795.987 60.0357C797.845 60.5332 797.889 62.8901 800.209 63.2072C800.459 63.0385 800.806 62.8572 800.929 62.6148L802.708 63.017C800.846 66.001 798.992 66.2671 795.57 66.0945C795.838 64.8572 796.009 63.8838 796.18 62.6289L795.482 61.8381Z" fill="black" fill-opacity="0.0117647"/>
</g>
<defs>
<clipPath id="clip0_3_12">
<rect width="805" height="209" fill="white"/>
</clipPath>
</defs>
</svg>
