<svg width="311" height="100" viewBox="0 0 311 100" fill="none" xmlns="http://www.w3.org/2000/svg">
<g clip-path="url(#clip0_2742_2)">
<path d="M125.002 27.029C123.619 25.6753 122.931 23.9064 122.931 21.7108V20.6586C122.931 20.522 122.977 20.4083 123.073 20.3116C123.17 20.2148 123.284 20.1694 123.42 20.1694H127.112C127.248 20.1694 127.362 20.2148 127.459 20.3116C127.555 20.4083 127.601 20.522 127.601 20.6586V21.4719C127.601 22.5242 127.862 23.3774 128.391 24.0258C128.92 24.6742 129.603 24.9984 130.439 24.9984C131.276 24.9984 131.97 24.6913 132.509 24.0883C133.05 23.4798 133.323 22.6777 133.323 21.671C133.323 20.9657 133.176 20.3571 132.879 19.8452C132.584 19.3333 132.162 18.8441 131.623 18.3834C131.082 17.9227 130.218 17.2629 129.023 16.3927C127.67 15.42 126.583 14.5554 125.757 13.7933C124.933 13.0367 124.245 12.121 123.688 11.0573C123.13 9.98799 122.857 8.74802 122.857 7.34311C122.857 5.09637 123.533 3.31606 124.888 1.98508C126.23 0.665487 128.017 0 130.235 0C132.453 0 134.29 0.699614 135.672 2.08747C137.054 3.48101 137.742 5.32958 137.742 7.62751V8.60015C137.742 8.73665 137.697 8.85041 137.6 8.9471C137.503 9.0438 137.39 9.0893 137.253 9.0893H133.602C133.465 9.0893 133.351 9.0438 133.255 8.9471C133.157 8.85041 133.113 8.73665 133.113 8.60015V7.54788C133.113 6.4956 132.85 5.64811 132.321 5.01106C131.792 4.37401 131.098 4.05549 130.235 4.05549C129.421 4.05549 128.761 4.34558 128.243 4.92575C127.732 5.5059 127.47 6.31359 127.47 7.33742C127.47 8.31006 127.749 9.14049 128.301 9.81166C128.853 10.4885 129.944 11.4214 131.566 12.6101C133.215 13.8274 134.46 14.8228 135.296 15.5906C136.132 16.3584 136.782 17.206 137.242 18.1274C137.702 19.0488 137.93 20.141 137.93 21.4151C137.93 23.7129 137.242 25.5616 135.86 26.9551C134.478 28.3486 132.668 29.0425 130.423 29.0425C128.176 29.0425 126.367 28.3657 124.984 27.0119L125.002 27.029Z" fill="#1B1B1B"/>
<path d="M143.281 26.8018C141.887 25.3001 141.193 23.3207 141.193 20.8579V0.813624C141.193 0.677113 141.239 0.563356 141.336 0.46666C141.433 0.369966 141.546 0.324463 141.683 0.324463H145.414C145.551 0.324463 145.664 0.369966 145.761 0.46666C145.858 0.563356 145.903 0.677113 145.903 0.813624V21.3471C145.903 22.4278 146.17 23.3093 146.716 23.9862C147.257 24.6631 147.974 24.9986 148.867 24.9986C149.76 24.9986 150.477 24.6631 151.017 23.9862C151.557 23.3093 151.831 22.4334 151.831 21.3471V0.813624C151.831 0.677113 151.875 0.563356 151.973 0.46666C152.069 0.369966 152.183 0.324463 152.32 0.324463H156.051C156.187 0.324463 156.301 0.369966 156.398 0.46666C156.495 0.563356 156.54 0.677113 156.54 0.813624V20.8579C156.54 23.3207 155.834 25.3001 154.43 26.8018C153.025 28.3033 151.171 29.0542 148.873 29.0542C146.546 29.0542 144.686 28.3033 143.292 26.8018H143.281Z" fill="#1B1B1B"/>
<path d="M162.013 27.029C160.631 25.6753 159.943 23.9064 159.943 21.7108V20.6586C159.943 20.522 159.989 20.4083 160.086 20.3116C160.182 20.2148 160.295 20.1694 160.432 20.1694H164.124C164.26 20.1694 164.373 20.2148 164.471 20.3116C164.567 20.4083 164.613 20.522 164.613 20.6586V21.4719C164.613 22.5242 164.875 23.3774 165.404 24.0258C165.932 24.6742 166.614 24.9984 167.451 24.9984C168.287 24.9984 168.981 24.6913 169.522 24.0883C170.061 23.4798 170.335 22.6777 170.335 21.671C170.335 20.9657 170.187 20.3571 169.892 19.8452C169.595 19.3333 169.175 18.8441 168.634 18.3834C168.094 17.9227 167.229 17.2629 166.035 16.3927C164.681 15.42 163.595 14.5554 162.77 13.7933C161.946 13.0367 161.257 12.121 160.7 11.0573C160.142 9.98799 159.869 8.74802 159.869 7.34311C159.869 5.09637 160.546 3.31606 161.9 1.98508C163.242 0.665487 165.028 0 167.247 0C169.493 0 171.302 0.699614 172.684 2.08747C174.066 3.48101 174.754 5.32958 174.754 7.62751V8.60015C174.754 8.73665 174.708 8.85041 174.612 8.9471C174.516 9.0438 174.401 9.0893 174.265 9.0893H170.613C170.477 9.0893 170.364 9.0438 170.266 8.9471C170.17 8.85041 170.124 8.73665 170.124 8.60015V7.54788C170.124 6.4956 169.863 5.64811 169.334 5.01106C168.805 4.37401 168.111 4.05549 167.247 4.05549C166.432 4.05549 165.773 4.34558 165.255 4.92575C164.743 5.5059 164.482 6.31359 164.482 7.33742C164.482 8.31006 164.76 9.14049 165.312 9.81166C165.864 10.4885 166.957 11.4214 168.577 12.6101C170.226 13.8274 171.472 14.8228 172.308 15.5906C173.145 16.3584 173.793 17.206 174.254 18.1274C174.714 19.0488 174.942 20.141 174.942 21.4151C174.942 23.7129 174.254 25.5616 172.872 26.9551C171.489 28.3486 169.681 29.0425 167.434 29.0425C165.188 29.0425 163.378 28.3657 161.996 27.0119L162.013 27.029Z" fill="#1B1B1B"/>
<path d="M192.914 0.46666C193.01 0.563356 193.056 0.677113 193.056 0.813624V3.89647C193.056 4.03299 193.01 4.14675 192.914 4.24344C192.816 4.34013 192.703 4.38564 192.567 4.38564H187.413C187.277 4.38564 187.209 4.45389 187.209 4.5904V28.2465C187.209 28.383 187.163 28.4967 187.066 28.5934C186.969 28.6901 186.856 28.7356 186.719 28.7356H182.989C182.851 28.7356 182.738 28.6901 182.642 28.5934C182.544 28.4967 182.499 28.383 182.499 28.2465V4.58471C182.499 4.44821 182.431 4.37995 182.295 4.37995H177.425C177.289 4.37995 177.175 4.33445 177.078 4.23775C176.981 4.14106 176.936 4.0273 176.936 3.89078V0.813624C176.936 0.677113 176.981 0.563356 177.078 0.46666C177.175 0.369966 177.289 0.324463 177.425 0.324463H192.561C192.697 0.324463 192.811 0.369966 192.908 0.46666H192.914Z" fill="#1B1B1B"/>
<path d="M205.387 28.2858L204.612 24.0256C204.612 23.8891 204.533 23.8209 204.368 23.8209H198.441C198.276 23.8209 198.196 23.8891 198.196 24.0256L197.429 28.2858C197.4 28.5816 197.224 28.7296 196.9 28.7296H193.209C192.828 28.7296 192.68 28.5532 192.759 28.2005L198.765 0.767705C198.817 0.471934 198.993 0.318359 199.294 0.318359H203.594C203.89 0.318359 204.066 0.466246 204.123 0.767705L210.13 28.2005V28.3598C210.13 28.6044 209.982 28.7239 209.681 28.7239H205.91C205.586 28.7239 205.409 28.5759 205.381 28.2802L205.387 28.2858ZM199.135 20.1294H203.64C203.805 20.1294 203.868 20.0611 203.845 19.9246L201.49 7.10405C201.462 7.02442 201.422 6.98461 201.371 6.98461C201.319 6.98461 201.274 7.02442 201.251 7.10405L198.936 19.9246C198.907 20.0611 198.976 20.1294 199.141 20.1294H199.135Z" fill="#1B1B1B"/>
<path d="M213.041 28.5878C212.944 28.491 212.898 28.3773 212.898 28.2408V0.813624C212.898 0.677113 212.944 0.563356 213.041 0.46666C213.137 0.369966 213.251 0.324463 213.388 0.324463H217.119C217.255 0.324463 217.37 0.369966 217.466 0.46666C217.562 0.563356 217.608 0.677113 217.608 0.813624V28.2465C217.608 28.383 217.562 28.4967 217.466 28.5934C217.37 28.6901 217.255 28.7356 217.119 28.7356H213.388C213.251 28.7356 213.137 28.6901 213.041 28.5934V28.5878Z" fill="#1B1B1B"/>
<path d="M233.65 0.46666C233.747 0.369966 233.86 0.324463 233.997 0.324463H237.689C237.825 0.324463 237.938 0.369966 238.035 0.46666C238.132 0.563356 238.178 0.677113 238.178 0.813624V28.2465C238.178 28.383 238.132 28.4967 238.035 28.5934C237.938 28.6901 237.825 28.7356 237.689 28.7356H233.429C233.155 28.7356 232.984 28.5991 232.899 28.3318L226.853 11.1258C226.824 11.0462 226.779 11.0121 226.711 11.0234C226.642 11.0405 226.608 11.086 226.608 11.1656L226.648 28.2521C226.648 28.3886 226.602 28.5025 226.506 28.5991C226.41 28.6959 226.295 28.7413 226.159 28.7413H222.467C222.331 28.7413 222.217 28.6959 222.12 28.5991C222.024 28.5025 221.978 28.3886 221.978 28.2521V0.813624C221.978 0.677113 222.024 0.563356 222.12 0.46666C222.217 0.369966 222.331 0.324463 222.467 0.324463H226.648C226.916 0.324463 227.091 0.460973 227.177 0.728305L233.264 17.8148C233.291 17.8944 233.337 17.9286 233.406 17.9172C233.473 17.9059 233.508 17.8547 233.508 17.775V0.813624C233.508 0.677113 233.553 0.563356 233.65 0.46666Z" fill="#1B1B1B"/>
<path d="M253.559 28.2858L252.785 24.0256C252.785 23.8891 252.706 23.8209 252.541 23.8209H246.614C246.449 23.8209 246.37 23.8891 246.37 24.0256L245.601 28.2858C245.573 28.5816 245.396 28.7296 245.072 28.7296H241.38C241 28.7296 240.851 28.5532 240.931 28.2005L246.938 0.767705C246.989 0.471934 247.166 0.318359 247.467 0.318359H251.767C252.062 0.318359 252.239 0.466246 252.29 0.767705L258.297 28.2005V28.3598C258.297 28.6044 258.149 28.7239 257.853 28.7239H254.077C253.751 28.7239 253.576 28.5759 253.548 28.2802L253.559 28.2858ZM247.308 20.1294H251.813C251.978 20.1294 252.045 20.0611 252.018 19.9246L249.662 7.10405C249.633 7.02442 249.594 6.98461 249.537 6.98461C249.48 6.98461 249.441 7.02442 249.418 7.10405L247.103 19.9246C247.074 20.0611 247.143 20.1294 247.308 20.1294Z" fill="#1B1B1B"/>
<path d="M274.353 26.6993C272.903 28.0531 271.019 28.73 268.693 28.73H261.549C261.412 28.73 261.299 28.6844 261.203 28.5878C261.105 28.491 261.06 28.3773 261.06 28.2408V0.813624C261.06 0.677113 261.105 0.563356 261.203 0.46666C261.299 0.369966 261.412 0.324463 261.549 0.324463H267.959C270.53 0.324463 272.543 0.972886 274.006 2.27542C275.468 3.57227 276.195 5.46635 276.195 7.95765C276.195 10.7447 275.206 12.7355 273.233 13.9243C273.095 14.0039 273.072 14.0892 273.152 14.1689C274.205 14.8457 275.035 15.7501 275.627 16.8877C276.224 18.0253 276.519 19.379 276.519 20.9432C276.519 23.4345 275.798 25.3513 274.347 26.705L274.353 26.6993ZM265.77 4.58471V12.1326C265.77 12.2691 265.837 12.3373 265.975 12.3373H268.045C269.154 12.3373 270.018 12.0018 270.645 11.3249C271.264 10.648 271.577 9.68678 271.577 8.44113C271.577 7.19547 271.264 6.14321 270.645 5.4379C270.018 4.7326 269.154 4.38564 268.045 4.38564H265.975C265.837 4.38564 265.77 4.45389 265.77 4.5904V4.58471ZM270.883 23.4971C271.503 22.7406 271.816 21.6713 271.816 20.2891C271.816 18.9069 271.503 17.7807 270.883 16.9787C270.263 16.1824 269.41 15.7785 268.329 15.7785H265.975C265.837 15.7785 265.77 15.8468 265.77 15.9833V24.4242C265.77 24.5607 265.837 24.629 265.975 24.629H268.329C269.41 24.629 270.263 24.2479 270.883 23.4914V23.4971Z" fill="#1B1B1B"/>
<path d="M279.957 28.5878C279.86 28.491 279.815 28.3773 279.815 28.2408V0.813624C279.815 0.677113 279.86 0.563356 279.957 0.46666C280.053 0.369966 280.168 0.324463 280.304 0.324463H284.035C284.171 0.324463 284.286 0.369966 284.382 0.46666C284.478 0.563356 284.524 0.677113 284.524 0.813624V24.4697C284.524 24.6062 284.593 24.6744 284.729 24.6744H293.494C293.63 24.6744 293.745 24.72 293.841 24.8167C293.937 24.9133 293.983 25.0271 293.983 25.1636V28.2465C293.983 28.383 293.937 28.4967 293.841 28.5934C293.745 28.6901 293.63 28.7356 293.494 28.7356H280.304C280.168 28.7356 280.053 28.6901 279.957 28.5934V28.5878Z" fill="#1B1B1B"/>
<path d="M310.673 4.24344C310.575 4.34013 310.462 4.38564 310.326 4.38564H301.561C301.424 4.38564 301.356 4.45389 301.356 4.5904V12.2634C301.356 12.4 301.424 12.4681 301.561 12.4681H306.754C306.89 12.4681 307.004 12.5137 307.101 12.6103C307.197 12.7071 307.243 12.8208 307.243 12.9573V16.08C307.243 16.2165 307.197 16.3303 307.101 16.4269C307.004 16.5237 306.89 16.5691 306.754 16.5691H301.561C301.424 16.5691 301.356 16.6374 301.356 16.7739V24.481C301.356 24.6175 301.424 24.6859 301.561 24.6859H310.326C310.462 24.6859 310.575 24.7313 310.673 24.828C310.769 24.9248 310.815 25.0385 310.815 25.175V28.2579C310.815 28.3944 310.769 28.5081 310.673 28.6048C310.575 28.7015 310.462 28.7471 310.326 28.7471H297.136C296.998 28.7471 296.885 28.7015 296.789 28.6048C296.692 28.5081 296.646 28.3944 296.646 28.2579V0.813624C296.646 0.677113 296.692 0.563356 296.789 0.46666C296.885 0.369966 296.998 0.324463 297.136 0.324463H310.326C310.462 0.324463 310.575 0.369966 310.673 0.46666C310.769 0.563356 310.815 0.677113 310.815 0.813624V3.89648C310.815 4.03299 310.769 4.14675 310.673 4.24344Z" fill="#1B1B1B"/>
<path d="M136.402 60.3721C134.952 61.7258 133.068 62.4027 130.742 62.4027H123.599C123.461 62.4027 123.348 62.3571 123.252 62.2605C123.154 62.1637 123.109 62.05 123.109 61.9135V34.4807C123.109 34.3441 123.154 34.2304 123.252 34.1337C123.348 34.037 123.461 33.9915 123.599 33.9915H130.008C132.579 33.9915 134.593 34.6399 136.055 35.9424C137.517 37.2393 138.244 39.1334 138.244 41.6247C138.244 44.4118 137.255 46.4025 135.282 47.5913C135.144 47.671 135.117 47.7563 135.201 47.8359C136.254 48.5128 137.084 49.4171 137.676 50.5547C138.273 51.6923 138.568 53.046 138.568 54.6102C138.568 57.1016 137.847 59.0183 136.396 60.3721H136.402ZM127.819 38.2575V45.8053C127.819 45.9418 127.887 46.0101 128.024 46.0101H130.094C131.203 46.0101 132.067 45.6745 132.694 44.9976C133.319 44.3207 133.626 43.3595 133.626 42.1139C133.626 40.8682 133.313 39.8159 132.694 39.1106C132.073 38.4053 131.203 38.0583 130.094 38.0583H128.024C127.887 38.0583 127.819 38.1266 127.819 38.2631V38.2575ZM132.932 57.1698C133.552 56.4133 133.865 55.344 133.865 53.9618C133.865 52.5796 133.552 51.4534 132.932 50.6515C132.312 49.8551 131.459 49.4513 130.378 49.4513H128.024C127.887 49.4513 127.819 49.5195 127.819 49.656V58.0969C127.819 58.2334 127.887 58.3017 128.024 58.3017H130.378C131.459 58.3017 132.312 57.9206 132.932 57.1641V57.1698Z" fill="#1B1B1B"/>
<path d="M142.037 62.2605C141.94 62.1637 141.895 62.05 141.895 61.9135V34.4807C141.895 34.3441 141.94 34.2304 142.037 34.1337C142.134 34.037 142.248 33.9915 142.384 33.9915H146.121C146.257 33.9915 146.372 34.037 146.468 34.1337C146.564 34.2304 146.61 34.3441 146.61 34.4807V61.9135C146.61 62.05 146.564 62.1637 146.468 62.2605C146.372 62.3571 146.257 62.4027 146.121 62.4027H142.384C142.248 62.4027 142.134 62.3571 142.037 62.2605Z" fill="#1B1B1B"/>
<path d="M165.899 34.1337C165.995 34.2304 166.041 34.3441 166.041 34.4807V37.5635C166.041 37.7 165.995 37.8137 165.899 37.9105C165.801 38.0072 165.688 38.0527 165.552 38.0527H160.398C160.261 38.0527 160.193 38.121 160.193 38.2575V61.9135C160.193 62.05 160.148 62.1637 160.051 62.2605C159.954 62.3571 159.841 62.4027 159.704 62.4027H155.968C155.831 62.4027 155.717 62.3571 155.621 62.2605C155.524 62.1637 155.478 62.05 155.478 61.9135V38.2575C155.478 38.121 155.41 38.0527 155.274 38.0527H150.405C150.268 38.0527 150.154 38.0072 150.058 37.9105C149.96 37.8137 149.916 37.7 149.916 37.5635V34.4807C149.916 34.3441 149.96 34.2304 150.058 34.1337C150.154 34.037 150.268 33.9915 150.405 33.9915H165.54C165.677 33.9915 165.79 34.037 165.887 34.1337H165.899Z" fill="#1B1B1B"/>
<path d="M169.957 60.6335C168.563 59.2399 167.869 57.397 167.869 55.0934V41.2547C167.869 38.9283 168.569 37.0798 169.957 35.7147C171.35 34.3495 173.199 33.667 175.497 33.667C177.794 33.667 179.688 34.3495 181.099 35.7147C182.51 37.0798 183.21 38.9283 183.21 41.2547V41.7439C183.21 41.8804 183.164 41.9998 183.067 42.1078C182.97 42.2159 182.857 42.2728 182.72 42.2728L178.949 42.4321C178.625 42.4321 178.46 42.2728 178.46 41.9429V40.9305C178.46 39.9863 178.187 39.2128 177.646 38.6155C177.107 38.0183 176.39 37.7225 175.497 37.7225C174.632 37.7225 173.927 38.024 173.386 38.6155C172.846 39.2128 172.573 39.9806 172.573 40.9305V55.4575C172.573 56.4074 172.84 57.1752 173.386 57.7724C173.927 58.3696 174.632 58.6654 175.497 58.6654C176.361 58.6654 177.107 58.3696 177.646 57.7724C178.187 57.1752 178.46 56.4074 178.46 55.4575V54.4449C178.46 54.3084 178.505 54.1947 178.603 54.0981C178.699 54.0013 178.813 53.9558 178.949 53.9558L182.72 54.1207C182.857 54.1207 182.97 54.1663 183.067 54.263C183.164 54.3596 183.21 54.4734 183.21 54.6099V55.099C183.21 57.397 182.504 59.2455 181.099 60.6392C179.694 62.0327 177.823 62.7266 175.497 62.7266C173.199 62.7266 171.35 62.0327 169.957 60.6392V60.6335Z" fill="#1B1B1B"/>
<path d="M188.541 60.6164C187.119 59.2114 186.408 57.3458 186.408 55.0137V41.3798C186.408 39.0535 187.119 37.1878 188.541 35.7772C189.963 34.3723 191.835 33.667 194.16 33.667C196.487 33.667 198.364 34.3723 199.804 35.7772C201.236 37.1822 201.953 39.0535 201.953 41.3798V55.0137C201.953 57.3401 201.236 59.2058 199.804 60.6164C198.37 62.0213 196.487 62.7266 194.16 62.7266C191.835 62.7266 189.963 62.0213 188.541 60.6164ZM196.396 57.7155C196.965 57.0784 197.249 56.2481 197.249 55.2186V41.1807C197.249 40.1512 196.965 39.3208 196.396 38.6837C195.828 38.0467 195.082 37.7282 194.166 37.7282C193.251 37.7282 192.511 38.0467 191.954 38.6837C191.396 39.3208 191.123 40.1512 191.123 41.1807V55.2186C191.123 56.2481 191.402 57.0784 191.954 57.7155C192.506 58.3525 193.245 58.6711 194.166 58.6711C195.088 58.6711 195.833 58.3525 196.396 57.7155Z" fill="#1B1B1B"/>
<path d="M205.991 62.2605C205.895 62.1637 205.849 62.05 205.849 61.9135V34.4807C205.849 34.3441 205.895 34.2304 205.991 34.1337C206.089 34.037 206.202 33.9915 206.338 33.9915H210.07C210.207 33.9915 210.32 34.037 210.417 34.1337C210.514 34.2304 210.559 34.3441 210.559 34.4807V61.9135C210.559 62.05 210.514 62.1637 210.417 62.2605C210.32 62.3571 210.207 62.4027 210.07 62.4027H206.338C206.202 62.4027 206.089 62.3571 205.991 62.2605Z" fill="#1B1B1B"/>
<path d="M226.608 34.1398C226.704 34.0431 226.819 33.9976 226.955 33.9976H230.646C230.783 33.9976 230.897 34.0431 230.993 34.1398C231.09 34.2365 231.136 34.3502 231.136 34.4867V61.9196C231.136 62.0561 231.09 62.1698 230.993 62.2666C230.897 62.3632 230.783 62.4088 230.646 62.4088H226.386C226.113 62.4088 225.943 62.2723 225.857 62.0049L219.81 44.799C219.782 44.7194 219.737 44.6851 219.668 44.6966C219.601 44.7136 219.566 44.7591 219.566 44.8388L219.605 61.9253C219.605 62.0618 219.561 62.1755 219.463 62.2723C219.367 62.369 219.254 62.4144 219.116 62.4144H215.425C215.289 62.4144 215.175 62.369 215.079 62.2723C214.981 62.1755 214.936 62.0618 214.936 61.9253V34.4925C214.936 34.356 214.981 34.2421 215.079 34.1455C215.175 34.0488 215.289 34.0032 215.425 34.0032H219.605C219.873 34.0032 220.05 34.1398 220.134 34.4071L226.221 51.4937C226.25 51.5732 226.295 51.6074 226.363 51.596C226.432 51.5847 226.466 51.5335 226.466 51.4538V34.4925C226.466 34.356 226.511 34.2421 226.608 34.1455V34.1398Z" fill="#1B1B1B"/>
<path d="M135.017 71.3602C136.11 72.0655 136.963 73.0495 137.572 74.3236C138.18 75.5977 138.481 77.0425 138.481 78.6636C138.481 81.0979 137.839 83.0603 136.554 84.5506C135.268 86.0408 133.573 86.7802 131.462 86.7802H128.01C127.874 86.7802 127.805 86.8484 127.805 86.9849V98.2641C127.805 98.4006 127.76 98.5144 127.663 98.611C127.567 98.7078 127.452 98.7532 127.316 98.7532H123.585C123.449 98.7532 123.334 98.7078 123.238 98.611C123.141 98.5144 123.096 98.4006 123.096 98.2641V70.7914C123.096 70.6549 123.141 70.5412 123.238 70.4444C123.334 70.3478 123.449 70.3022 123.585 70.3022H131.213C132.645 70.3022 133.908 70.6549 135.007 71.3545L135.017 71.3602ZM132.868 81.9284C133.476 81.1606 133.778 80.1083 133.778 78.783C133.778 77.4577 133.476 76.3542 132.868 75.5579C132.258 74.7616 131.451 74.3578 130.456 74.3578H128.021C127.885 74.3578 127.816 74.426 127.816 74.5625V82.8839C127.816 83.0204 127.885 83.0888 128.021 83.0888H130.456C131.457 83.0888 132.258 82.7019 132.868 81.9284Z" fill="#1B1B1B"/>
<path d="M152.405 98.3447L148.952 86.7014C148.896 86.5934 148.833 86.5365 148.747 86.5365H146.598C146.461 86.5365 146.393 86.6048 146.393 86.7413V98.2651C146.393 98.4016 146.347 98.5153 146.251 98.6121C146.153 98.7087 146.04 98.7542 145.904 98.7542H142.173C142.035 98.7542 141.922 98.7087 141.826 98.6121C141.728 98.5153 141.684 98.4016 141.684 98.2651V70.8322C141.684 70.6957 141.728 70.5819 141.826 70.4852C141.922 70.3886 142.035 70.343 142.173 70.343H149.799C151.233 70.343 152.496 70.69 153.593 71.3782C154.692 72.0665 155.545 73.0448 156.153 74.3018C156.762 75.5589 157.063 76.998 157.063 78.6247C157.063 80.2515 156.739 81.7474 156.091 82.9646C155.443 84.1818 154.538 85.1033 153.372 85.7231C153.264 85.7516 153.225 85.8312 153.252 85.9677L157.228 98.1854C157.257 98.2423 157.268 98.3048 157.268 98.3901C157.268 98.6348 157.12 98.7542 156.825 98.7542H152.928C152.661 98.7542 152.485 98.6177 152.399 98.3504L152.405 98.3447ZM146.398 74.6033V82.6801C146.398 82.8166 146.467 82.8849 146.603 82.8849H149.078C150.05 82.8849 150.84 82.5039 151.45 81.7474C152.058 80.9908 152.359 79.9613 152.359 78.6645C152.359 77.3676 152.058 76.3324 151.45 75.5589C150.84 74.7853 150.05 74.4042 149.078 74.4042H146.603C146.467 74.4042 146.398 74.4724 146.398 74.609V74.6033Z" fill="#1B1B1B"/>
<path d="M162.047 96.9618C160.625 95.5569 159.914 93.6912 159.914 91.3592V77.7252C159.914 75.399 160.625 73.5333 162.047 72.1227C163.469 70.7178 165.34 70.0125 167.666 70.0125C169.993 70.0125 171.87 70.7178 173.308 72.1227C174.742 73.5276 175.459 75.399 175.459 77.7252V91.3592C175.459 93.6856 174.742 95.5512 173.308 96.9618C171.876 98.3668 169.993 99.0721 167.666 99.0721C165.34 99.0721 163.463 98.3668 162.047 96.9618ZM169.896 94.061C170.465 93.4239 170.749 92.5935 170.749 91.564V77.5262C170.749 76.4967 170.465 75.6662 169.896 75.0292C169.328 74.3922 168.582 74.0737 167.666 74.0737C166.751 74.0737 166.011 74.3922 165.454 75.0292C164.896 75.6662 164.623 76.4967 164.623 77.5262V91.564C164.623 92.5935 164.902 93.4239 165.454 94.061C166.006 94.698 166.745 95.0165 167.666 95.0165C168.588 95.0165 169.328 94.698 169.896 94.061Z" fill="#1B1B1B"/>
<path d="M194.263 70.4852C194.359 70.5819 194.405 70.6957 194.405 70.8322V73.9151C194.405 74.0516 194.359 74.1653 194.263 74.2621C194.166 74.3587 194.052 74.4042 193.916 74.4042H188.763C188.625 74.4042 188.558 74.4724 188.558 74.609V98.2651C188.558 98.4016 188.512 98.5153 188.416 98.6121C188.318 98.7087 188.205 98.7542 188.069 98.7542H184.337C184.2 98.7542 184.087 98.7087 183.99 98.6121C183.893 98.5153 183.848 98.4016 183.848 98.2651V74.609C183.848 74.4724 183.78 74.4042 183.643 74.4042H178.775C178.637 74.4042 178.524 74.3587 178.428 74.2621C178.33 74.1653 178.286 74.0516 178.286 73.9151V70.8322C178.286 70.6957 178.33 70.5819 178.428 70.4852C178.524 70.3886 178.637 70.343 178.775 70.343H193.91C194.046 70.343 194.16 70.3886 194.257 70.4852H194.263Z" fill="#1B1B1B"/>
<path d="M198.365 96.9618C196.943 95.5569 196.233 93.6912 196.233 91.3592V77.7252C196.233 75.399 196.943 73.5333 198.365 72.1227C199.788 70.7178 201.659 70.0125 203.986 70.0125C206.312 70.0125 208.189 70.7178 209.628 72.1227C211.062 73.5276 211.777 75.399 211.777 77.7252V91.3592C211.777 93.6856 211.062 95.5512 209.628 96.9618C208.194 98.3668 206.312 99.0721 203.986 99.0721C201.659 99.0721 199.782 98.3668 198.365 96.9618ZM206.215 94.061C206.783 93.4239 207.069 92.5935 207.069 91.564V77.5262C207.069 76.4967 206.783 75.6662 206.215 75.0292C205.646 74.3922 204.901 74.0737 203.986 74.0737C203.07 74.0737 202.33 74.3922 201.772 75.0292C201.216 75.6662 200.942 76.4967 200.942 77.5262V91.564C200.942 92.5935 201.221 93.4239 201.772 94.061C202.324 94.698 203.064 95.0165 203.986 95.0165C204.907 95.0165 205.646 94.698 206.215 94.061Z" fill="#1B1B1B"/>
<path d="M217.272 96.9851C215.878 95.5914 215.186 93.7486 215.186 91.4451V77.6063C215.186 75.2799 215.878 73.4313 217.272 72.0663C218.666 70.7012 220.508 70.0186 222.812 70.0186C225.139 70.0186 227.005 70.7012 228.416 72.0663C229.82 73.4313 230.525 75.2799 230.525 77.6063V78.0954C230.525 78.2319 230.48 78.3514 230.383 78.4595C230.287 78.5676 230.172 78.6245 230.036 78.6245L226.259 78.7837C225.935 78.7837 225.77 78.6245 225.77 78.2946V77.282C225.77 76.3378 225.502 75.5643 224.957 74.9671C224.417 74.3699 223.7 74.0741 222.807 74.0741C221.913 74.0741 221.237 74.3755 220.696 74.9671C220.157 75.5643 219.883 76.3322 219.883 77.282V91.809C219.883 92.7589 220.151 93.5268 220.696 94.124C221.237 94.7212 221.942 95.017 222.807 95.017C223.671 95.017 224.417 94.7212 224.957 94.124C225.498 93.5268 225.77 92.7589 225.77 91.809V90.7966C225.77 90.6601 225.816 90.5463 225.912 90.4496C226.01 90.3529 226.123 90.3075 226.259 90.3075L230.036 90.4724C230.172 90.4724 230.287 90.5178 230.383 90.6146C230.48 90.7112 230.525 90.8251 230.525 90.9616V91.4507C230.525 93.7486 229.82 95.5972 228.416 96.9907C227.01 98.3842 225.139 99.0782 222.812 99.0782C220.486 99.0782 218.666 98.3842 217.272 96.9907V96.9851Z" fill="#1B1B1B"/>
<path d="M235.862 96.9618C234.439 95.5569 233.728 93.6912 233.728 91.3592V77.7252C233.728 75.399 234.439 73.5333 235.862 72.1227C237.284 70.7178 239.155 70.0125 241.481 70.0125C243.808 70.0125 245.685 70.7178 247.124 72.1227C248.557 73.5276 249.274 75.399 249.274 77.7252V91.3592C249.274 93.6856 248.557 95.5512 247.124 96.9618C245.69 98.3668 243.808 99.0721 241.481 99.0721C239.155 99.0721 237.278 98.3668 235.862 96.9618ZM243.71 94.061C244.28 93.4239 244.565 92.5935 244.565 91.564V77.5262C244.565 76.4967 244.28 75.6662 243.71 75.0292C243.142 74.3922 242.397 74.0737 241.481 74.0737C240.566 74.0737 239.826 74.3922 239.268 75.0292C238.712 75.6662 238.438 76.4967 238.438 77.5262V91.564C238.438 92.5935 238.716 93.4239 239.268 94.061C239.82 94.698 240.56 95.0165 241.481 95.0165C242.403 95.0165 243.142 94.698 243.71 94.061Z" fill="#1B1B1B"/>
<path d="M253.31 98.606C253.214 98.5092 253.168 98.3955 253.168 98.259V70.8261C253.168 70.6896 253.214 70.5758 253.31 70.4792C253.406 70.3825 253.521 70.3369 253.657 70.3369H257.394C257.531 70.3369 257.644 70.3825 257.741 70.4792C257.838 70.5758 257.884 70.6896 257.884 70.8261V94.4822C257.884 94.6187 257.951 94.6869 258.088 94.6869H266.853C266.99 94.6869 267.103 94.7325 267.2 94.8292C267.297 94.9258 267.343 95.0396 267.343 95.1761V98.259C267.343 98.3955 267.297 98.5092 267.2 98.606C267.103 98.7026 266.99 98.7481 266.853 98.7481H253.663C253.526 98.7481 253.413 98.7026 253.316 98.606H253.31Z" fill="#1B1B1B"/>
<path d="M86.3995 0.0854492H12.3087C5.51078 0.0854492 0 5.59623 0 12.3941V86.485C0 93.2829 5.51078 98.7937 12.3087 98.7937H86.3995C93.1975 98.7937 98.7082 93.2829 98.7082 86.485V12.3941C98.7082 5.59623 93.1975 0.0854492 86.3995 0.0854492Z" fill="url(#paint0_linear_2742_2)"/>
<path d="M76.679 19.7886C39.5539 19.9819 42.4889 54.1095 16.569 54.1209C16.5405 54.1209 16.5121 54.1436 16.5121 54.1721C16.5121 56.5156 16.5121 76.1729 16.5121 78.9544C16.5121 78.9828 16.5349 79.0056 16.5633 79.0056C61.9017 81.0987 53.6428 45.6573 82.5773 44.696C82.6057 44.696 82.6342 44.6676 82.6342 44.6392V37.9217V19.8511C82.6342 19.817 82.6057 19.7942 82.5773 19.7942H76.679V19.7886Z" fill="white"/>
<path d="M82.634 60.3435H63.8866V79.091H82.634V60.3435Z" fill="white"/>
<path d="M35.2595 19.7886H16.5121V38.536H35.2595V19.7886Z" fill="white"/>
</g>
<defs>
<linearGradient id="paint0_linear_2742_2" x1="-1.05465" y1="99.1803" x2="88.3165" y2="12.9177" gradientUnits="userSpaceOnUse">
<stop stop-color="#339DFF"/>
<stop offset="1" stop-color="#0EC1D3"/>
</linearGradient>
<clipPath id="clip0_2742_2">
<rect width="310.843" height="100" fill="white"/>
</clipPath>
</defs>
</svg>
