<svg width="943" height="684" viewBox="0 0 943 684" fill="none" xmlns="http://www.w3.org/2000/svg">
<rect width="500" height="500" transform="translate(221.5)" fill="#1B1B1B"/>
<path d="M371.5 133.333H571.5V200H371.5V133.333Z" fill="#EEEEEE"/>
<path d="M431.5 216.667H571.5V283.334H431.5V216.667Z" fill="#EEEEEE"/>
<path d="M371.5 216.667H411.5V283.334H371.5V216.667Z" fill="#FFD600"/>
<path d="M371.5 300H571.5V366.666H371.5V300Z" fill="#EEEEEE"/>
<path d="M29.763 642.211L49.0723 554.054H60.5913L66.8501 561.578L46.2757 651H33.5582L29.763 642.211ZM24.636 554.054L40.949 642.877L36.7543 651H22.0392L1.46484 554.054H24.636ZM77.437 642.411L93.6168 554.054H116.721L96.147 651H81.4986L77.437 642.411ZM68.9142 554.054L88.6896 642.744L84.6946 651H71.9771L50.9366 561.445L57.4618 554.054H68.9142ZM157.604 652.332C151.744 652.332 146.507 651.422 141.89 649.602C137.274 647.737 133.367 645.185 130.171 641.945C127.02 638.704 124.6 634.975 122.914 630.759C121.271 626.542 120.45 622.08 120.45 617.375V614.845C120.45 609.563 121.183 604.68 122.647 600.197C124.112 595.669 126.287 591.718 129.173 588.345C132.058 584.971 135.676 582.352 140.026 580.488C144.376 578.579 149.436 577.625 155.207 577.625C160.312 577.625 164.884 578.446 168.923 580.088C172.963 581.731 176.38 584.083 179.177 587.146C182.018 590.209 184.171 593.915 185.636 598.266C187.145 602.616 187.899 607.499 187.899 612.914V622.036H129.039V607.987H165.993V606.256C166.038 603.859 165.616 601.817 164.728 600.13C163.885 598.443 162.642 597.156 161 596.268C159.357 595.38 157.36 594.936 155.007 594.936C152.566 594.936 150.546 595.469 148.948 596.534C147.394 597.6 146.174 599.065 145.286 600.929C144.442 602.749 143.843 604.857 143.488 607.254C143.133 609.651 142.955 612.182 142.955 614.845V617.375C142.955 620.039 143.311 622.458 144.021 624.633C144.775 626.808 145.841 628.672 147.217 630.226C148.637 631.735 150.324 632.911 152.277 633.755C154.275 634.598 156.539 635.02 159.069 635.02C162.132 635.02 165.15 634.443 168.124 633.289C171.098 632.135 173.651 630.226 175.781 627.563L185.969 639.681C184.504 641.767 182.417 643.787 179.71 645.74C177.046 647.693 173.85 649.291 170.122 650.534C166.393 651.732 162.22 652.332 157.604 652.332ZM197.221 548.727H219.66V633.289L217.33 651H197.221V548.727ZM263.872 614.179V615.577C263.872 621.037 263.317 626.009 262.207 630.492C261.097 634.975 259.388 638.86 257.08 642.144C254.772 645.385 251.864 647.893 248.358 649.668C244.851 651.444 240.7 652.332 235.906 652.332C231.556 652.332 227.828 651.4 224.72 649.535C221.613 647.626 219.016 645.007 216.93 641.678C214.844 638.305 213.157 634.421 211.87 630.026C210.582 625.587 209.561 620.838 208.807 615.777V614.113C209.561 609.097 210.582 604.391 211.87 599.997C213.157 595.558 214.844 591.674 216.93 588.345C219.016 584.971 221.591 582.352 224.654 580.488C227.761 578.579 231.467 577.625 235.773 577.625C240.612 577.625 244.784 578.535 248.291 580.355C251.842 582.175 254.772 584.727 257.08 588.012C259.388 591.297 261.097 595.158 262.207 599.597C263.317 604.036 263.872 608.897 263.872 614.179ZM241.433 615.577V614.179C241.433 611.56 241.278 609.097 240.967 606.788C240.656 604.48 240.101 602.438 239.302 600.663C238.503 598.887 237.371 597.489 235.906 596.468C234.442 595.447 232.533 594.936 230.18 594.936C227.783 594.936 225.763 595.336 224.121 596.135C222.523 596.934 221.236 598.088 220.259 599.597C219.327 601.062 218.661 602.882 218.262 605.057C217.862 607.188 217.685 609.607 217.729 612.315V617.575C217.64 621.259 217.973 624.411 218.728 627.03C219.482 629.649 220.792 631.646 222.656 633.022C224.521 634.398 227.073 635.086 230.313 635.086C232.71 635.086 234.641 634.62 236.106 633.688C237.615 632.756 238.747 631.424 239.502 629.693C240.257 627.962 240.767 625.898 241.033 623.501C241.3 621.104 241.433 618.463 241.433 615.577ZM311.612 630.759C311.612 629.516 311.191 628.45 310.347 627.563C309.548 626.63 308.128 625.787 306.086 625.032C304.044 624.233 301.181 623.434 297.496 622.635C293.99 621.881 290.683 620.882 287.575 619.639C284.513 618.396 281.827 616.887 279.519 615.111C277.211 613.336 275.391 611.227 274.059 608.786C272.772 606.344 272.128 603.548 272.128 600.396C272.128 597.333 272.772 594.448 274.059 591.74C275.391 588.988 277.322 586.569 279.852 584.483C282.426 582.352 285.556 580.688 289.24 579.489C292.924 578.246 297.119 577.625 301.824 577.625C308.305 577.625 313.898 578.623 318.604 580.621C323.309 582.574 326.926 585.326 329.457 588.877C332.031 592.384 333.319 596.446 333.319 601.062H310.88C310.88 599.242 310.569 597.689 309.948 596.401C309.371 595.114 308.416 594.137 307.085 593.472C305.753 592.761 303.977 592.406 301.758 592.406C300.204 592.406 298.784 592.695 297.496 593.272C296.254 593.849 295.255 594.648 294.5 595.669C293.746 596.69 293.368 597.888 293.368 599.264C293.368 600.241 293.59 601.129 294.034 601.928C294.522 602.682 295.255 603.393 296.231 604.058C297.208 604.68 298.451 605.257 299.96 605.79C301.469 606.278 303.289 606.722 305.42 607.121C310.258 608.009 314.786 609.274 319.003 610.917C323.22 612.559 326.638 614.889 329.257 617.908C331.92 620.926 333.252 624.988 333.252 630.093C333.252 633.289 332.52 636.241 331.055 638.948C329.59 641.612 327.481 643.964 324.729 646.006C321.977 648.004 318.67 649.557 314.808 650.667C310.946 651.777 306.596 652.332 301.758 652.332C294.877 652.332 289.062 651.111 284.313 648.67C279.563 646.184 275.968 643.077 273.526 639.348C271.129 635.575 269.931 631.757 269.931 627.895H290.838C290.927 630.115 291.46 631.935 292.436 633.355C293.457 634.776 294.811 635.819 296.498 636.485C298.184 637.151 300.138 637.483 302.357 637.483C304.399 637.483 306.086 637.195 307.417 636.618C308.793 636.041 309.837 635.264 310.547 634.287C311.257 633.267 311.612 632.09 311.612 630.759ZM367.476 578.956V651H344.971V578.956H367.476ZM343.639 560.379C343.639 557.183 344.793 554.564 347.101 552.523C349.41 550.481 352.406 549.46 356.09 549.46C359.774 549.46 362.771 550.481 365.079 552.523C367.387 554.564 368.541 557.183 368.541 560.379C368.541 563.575 367.387 566.194 365.079 568.236C362.771 570.278 359.774 571.299 356.09 571.299C352.406 571.299 349.41 570.278 347.101 568.236C344.793 566.194 343.639 563.575 343.639 560.379ZM419.278 578.956V594.537H375.866V578.956H419.278ZM384.988 561.045H407.426V627.496C407.426 629.405 407.648 630.892 408.092 631.957C408.536 632.978 409.291 633.71 410.356 634.154C411.466 634.554 412.931 634.754 414.751 634.754C416.038 634.754 417.103 634.731 417.947 634.687C418.79 634.598 419.589 634.487 420.344 634.354V650.401C418.435 651.022 416.437 651.488 414.351 651.799C412.265 652.154 410.045 652.332 407.693 652.332C402.899 652.332 398.793 651.577 395.375 650.068C392.001 648.559 389.426 646.184 387.651 642.943C385.875 639.703 384.988 635.486 384.988 630.292V561.045ZM463.09 652.332C457.231 652.332 451.993 651.422 447.377 649.602C442.76 647.737 438.854 645.185 435.658 641.945C432.506 638.704 430.087 634.975 428.4 630.759C426.758 626.542 425.937 622.08 425.937 617.375V614.845C425.937 609.563 426.669 604.68 428.134 600.197C429.599 595.669 431.774 591.718 434.659 588.345C437.544 584.971 441.162 582.352 445.512 580.488C449.862 578.579 454.923 577.625 460.693 577.625C465.798 577.625 470.37 578.446 474.41 580.088C478.449 581.731 481.867 584.083 484.663 587.146C487.504 590.209 489.657 593.915 491.122 598.266C492.631 602.616 493.386 607.499 493.386 612.914V622.036H434.526V607.987H471.48V606.256C471.524 603.859 471.103 601.817 470.215 600.13C469.371 598.443 468.129 597.156 466.486 596.268C464.844 595.38 462.846 594.936 460.494 594.936C458.052 594.936 456.032 595.469 454.434 596.534C452.881 597.6 451.66 599.065 450.772 600.929C449.929 602.749 449.33 604.857 448.975 607.254C448.619 609.651 448.442 612.182 448.442 614.845V617.375C448.442 620.039 448.797 622.458 449.507 624.633C450.262 626.808 451.327 628.672 452.703 630.226C454.124 631.735 455.811 632.911 457.764 633.755C459.761 634.598 462.025 635.02 464.555 635.02C467.618 635.02 470.637 634.443 473.611 633.289C476.585 632.135 479.137 630.226 481.268 627.563L491.455 639.681C489.99 641.767 487.904 643.787 485.196 645.74C482.533 647.693 479.337 649.291 475.608 650.534C471.879 651.732 467.707 652.332 463.09 652.332Z" fill="#FFD600"/>
<path d="M540.261 628.162L560.436 554.054H586.603L553.911 651H536.998L540.261 628.162ZM521.95 554.054L542.125 628.162L545.521 651H528.409L495.916 554.054H521.95ZM616.366 578.956V651H593.861V578.956H616.366ZM592.529 560.379C592.529 557.183 593.683 554.564 595.992 552.523C598.3 550.481 601.296 549.46 604.98 549.46C608.665 549.46 611.661 550.481 613.969 552.523C616.277 554.564 617.432 557.183 617.432 560.379C617.432 563.575 616.277 566.194 613.969 568.236C611.661 570.278 608.665 571.299 604.98 571.299C601.296 571.299 598.3 570.278 595.992 568.236C593.683 566.194 592.529 563.575 592.529 560.379ZM652.854 548.661V651H630.415V548.661H652.854ZM698.93 578.956L667.636 615.644L651.256 632.024L641.468 617.775L655.118 599.997L672.03 578.956H698.93ZM674.893 651L655.651 618.174L672.23 606.389L700.595 651H674.893ZM727.428 596.801V651H704.989V578.956H725.963L727.428 596.801ZM748.735 578.424L748.335 599.264C747.448 599.176 746.249 599.065 744.74 598.931C743.231 598.798 741.966 598.732 740.945 598.732C738.326 598.732 736.062 599.042 734.153 599.664C732.289 600.241 730.735 601.129 729.492 602.327C728.294 603.481 727.406 604.946 726.829 606.722C726.296 608.497 726.052 610.561 726.096 612.914L722.035 610.251C722.035 605.412 722.501 601.018 723.433 597.067C724.41 593.072 725.786 589.632 727.561 586.747C729.337 583.817 731.49 581.575 734.02 580.022C736.55 578.424 739.391 577.625 742.543 577.625C743.652 577.625 744.74 577.691 745.805 577.824C746.915 577.958 747.891 578.157 748.735 578.424ZM790.017 652.332C784.157 652.332 778.92 651.422 774.303 649.602C769.687 647.737 765.78 645.185 762.584 641.945C759.433 638.704 757.013 634.975 755.327 630.759C753.684 626.542 752.863 622.08 752.863 617.375V614.845C752.863 609.563 753.595 604.68 755.06 600.197C756.525 595.669 758.7 591.718 761.586 588.345C764.471 584.971 768.089 582.352 772.439 580.488C776.789 578.579 781.849 577.625 787.62 577.625C792.725 577.625 797.297 578.446 801.336 580.088C805.375 581.731 808.793 584.083 811.59 587.146C814.431 590.209 816.584 593.915 818.049 598.266C819.558 602.616 820.312 607.499 820.312 612.914V622.036H761.452V607.987H798.406V606.256C798.451 603.859 798.029 601.817 797.141 600.13C796.298 598.443 795.055 597.156 793.413 596.268C791.77 595.38 789.773 594.936 787.42 594.936C784.979 594.936 782.959 595.469 781.361 596.534C779.807 597.6 778.587 599.065 777.699 600.929C776.855 602.749 776.256 604.857 775.901 607.254C775.546 609.651 775.368 612.182 775.368 614.845V617.375C775.368 620.039 775.724 622.458 776.434 624.633C777.188 626.808 778.254 628.672 779.63 630.226C781.05 631.735 782.737 632.911 784.69 633.755C786.688 634.598 788.951 635.02 791.482 635.02C794.545 635.02 797.563 634.443 800.537 633.289C803.511 632.135 806.064 630.226 808.194 627.563L818.382 639.681C816.917 641.767 814.83 643.787 812.123 645.74C809.459 647.693 806.263 649.291 802.535 650.534C798.806 651.732 794.633 652.332 790.017 652.332ZM867.387 578.956V594.537H823.975V578.956H867.387ZM833.097 561.045H855.535V627.496C855.535 629.405 855.757 630.892 856.201 631.957C856.645 632.978 857.4 633.71 858.465 634.154C859.575 634.554 861.04 634.754 862.86 634.754C864.147 634.754 865.212 634.731 866.056 634.687C866.899 634.598 867.698 634.487 868.453 634.354V650.401C866.544 651.022 864.546 651.488 862.46 651.799C860.374 652.154 858.154 652.332 855.802 652.332C851.008 652.332 846.902 651.577 843.484 650.068C840.11 648.559 837.535 646.184 835.76 642.943C833.984 639.703 833.097 635.486 833.097 630.292V561.045ZM913.73 632.889V603.193C913.73 601.151 913.441 599.398 912.864 597.933C912.287 596.468 911.377 595.336 910.134 594.537C908.891 593.694 907.227 593.272 905.14 593.272C903.453 593.272 902.011 593.56 900.812 594.137C899.614 594.714 898.704 595.58 898.082 596.734C897.461 597.888 897.15 599.353 897.15 601.129H874.711C874.711 597.8 875.444 594.714 876.909 591.874C878.418 588.988 880.549 586.48 883.301 584.35C886.097 582.219 889.426 580.577 893.288 579.422C897.195 578.224 901.545 577.625 906.339 577.625C912.065 577.625 917.17 578.579 921.653 580.488C926.181 582.396 929.754 585.26 932.373 589.077C934.992 592.85 936.301 597.6 936.301 603.326V632.823C936.301 637.528 936.568 641.101 937.1 643.543C937.633 645.94 938.388 648.048 939.364 649.868V651H916.859C915.794 648.781 914.995 646.073 914.462 642.877C913.974 639.636 913.73 636.307 913.73 632.889ZM916.46 606.988L916.593 618.973H906.672C904.585 618.973 902.81 619.262 901.345 619.839C899.925 620.416 898.77 621.215 897.883 622.236C897.039 623.212 896.418 624.322 896.018 625.565C895.663 626.808 895.486 628.117 895.486 629.493C895.486 630.825 895.796 632.024 896.418 633.089C897.084 634.11 897.971 634.909 899.081 635.486C900.191 636.063 901.434 636.352 902.81 636.352C905.296 636.352 907.404 635.885 909.135 634.953C910.911 633.977 912.265 632.8 913.197 631.424C914.129 630.048 914.595 628.761 914.595 627.563L919.522 636.751C918.635 638.527 917.614 640.324 916.46 642.144C915.35 643.964 913.952 645.651 912.265 647.205C910.622 648.714 908.603 649.957 906.206 650.933C903.809 651.866 900.901 652.332 897.483 652.332C893.044 652.332 888.96 651.422 885.232 649.602C881.547 647.782 878.596 645.252 876.376 642.011C874.157 638.726 873.047 634.953 873.047 630.692C873.047 626.963 873.713 623.634 875.044 620.704C876.42 617.775 878.485 615.289 881.237 613.247C883.989 611.205 887.496 609.651 891.757 608.586C896.018 607.521 901.034 606.988 906.805 606.988H916.46Z" fill="#1B1B1B"/>
</svg>
