<svg width="574" height="67" viewBox="0 0 574 67" fill="none" xmlns="http://www.w3.org/2000/svg">
<path d="M18.8818 59.9242L31.1318 3.9968H38.4395L42.4102 8.77005L29.3576 65.5H21.2896L18.8818 59.9242ZM15.6292 3.9968L25.9783 60.3466L23.3171 65.5H13.9818L0.929307 3.9968H15.6292ZM49.1265 60.0509L59.3911 3.9968H74.0488L60.9963 65.5H51.7032L49.1265 60.0509ZM43.7197 3.9968L56.2653 60.2621L53.7308 65.5H45.6628L32.3145 8.68557L36.4542 3.9968H43.7197ZM98.2547 66.3448C94.5375 66.3448 91.2145 65.7675 88.2858 64.6129C85.3571 63.4302 82.8789 61.8109 80.8514 59.7552C78.852 57.6995 77.3172 55.3339 76.2471 52.6587C75.2051 49.9834 74.6842 47.1532 74.6842 44.1682V42.563C74.6842 39.2119 75.1488 36.1142 76.0781 33.27C77.0074 30.3976 78.3873 27.8912 80.2177 25.751C82.0482 23.6108 84.3433 21.9493 87.1031 20.7666C89.8628 19.5556 93.0732 18.9502 96.7341 18.9502C99.9726 18.9502 102.873 19.4712 105.436 20.5131C107.998 21.5551 110.167 23.0476 111.941 24.9907C113.743 26.9338 115.109 29.2852 116.038 32.045C116.996 34.8047 117.474 37.9024 117.474 41.338V47.1251H80.1333V38.2122H103.577V37.1139C103.605 35.5932 103.338 34.2978 102.775 33.2277C102.24 32.1576 101.451 31.3409 100.409 30.7777C99.3671 30.2145 98.0999 29.9329 96.6073 29.9329C95.0585 29.9329 93.7772 30.2708 92.7634 30.9467C91.7778 31.6225 91.0033 32.5519 90.4401 33.7346C89.9051 34.8892 89.5249 36.2268 89.2996 37.7475C89.0743 39.2682 88.9617 40.8734 88.9617 42.563V44.1682C88.9617 45.8578 89.187 47.3926 89.6375 48.7725C90.1163 50.1524 90.7921 51.3351 91.6651 52.3207C92.5663 53.2782 93.6364 54.0245 94.8755 54.5595C96.1427 55.0946 97.5789 55.3621 99.1841 55.3621C101.127 55.3621 103.042 54.996 104.929 54.2638C106.816 53.5317 108.435 52.3207 109.787 50.6311L116.25 58.319C115.32 59.6426 113.997 60.9239 112.279 62.1629C110.589 63.402 108.562 64.4158 106.196 65.2043C103.831 65.9647 101.183 66.3448 98.2547 66.3448ZM121.658 0.617498H135.893V54.2638L134.415 65.5H121.658V0.617498ZM163.942 42.1406V43.0277C163.942 46.4915 163.59 49.6455 162.885 52.4897C162.181 55.3339 161.097 57.798 159.633 59.8819C158.169 61.9377 156.324 63.5287 154.099 64.6552C151.875 65.7816 149.242 66.3448 146.2 66.3448C143.44 66.3448 141.075 65.7534 139.104 64.5707C137.132 63.3598 135.485 61.6983 134.161 59.5862C132.838 57.446 131.768 54.9819 130.951 52.194C130.134 49.3779 129.487 46.3647 129.008 43.1544V42.0984C129.487 38.9162 130.134 35.9312 130.951 33.1432C131.768 30.3272 132.838 27.8631 134.161 25.751C135.485 23.6108 137.118 21.9493 139.061 20.7666C141.033 19.5556 143.384 18.9502 146.116 18.9502C149.185 18.9502 151.832 19.5275 154.057 20.6821C156.31 21.8367 158.169 23.4559 159.633 25.5398C161.097 27.6237 162.181 30.0737 162.885 32.8898C163.59 35.7059 163.942 38.7895 163.942 42.1406ZM149.706 43.0277V42.1406C149.706 40.4791 149.608 38.9162 149.411 37.4518C149.213 35.9875 148.861 34.6921 148.355 33.5656C147.848 32.4392 147.13 31.5521 146.2 30.9044C145.271 30.2567 144.06 29.9329 142.567 29.9329C141.047 29.9329 139.765 30.1863 138.724 30.6932C137.71 31.2001 136.893 31.9323 136.274 32.8898C135.682 33.8191 135.26 34.9737 135.006 36.3536C134.753 37.7053 134.64 39.24 134.668 40.9579V44.2949C134.612 46.6323 134.823 48.6317 135.302 50.2932C135.781 51.9547 136.611 53.2219 137.794 54.0949C138.977 54.9679 140.596 55.4044 142.652 55.4044C144.173 55.4044 145.398 55.1087 146.327 54.5173C147.284 53.9259 148.003 53.0811 148.481 51.9828C148.96 50.8845 149.284 49.5751 149.453 48.0544C149.622 46.5337 149.706 44.8581 149.706 43.0277ZM192.498 52.6587C192.498 51.8702 192.231 51.1943 191.696 50.6311C191.189 50.0397 190.288 49.5047 188.992 49.0259C187.697 48.519 185.88 48.0121 183.543 47.5052C181.318 47.0265 179.22 46.3929 177.249 45.6044C175.306 44.8159 173.602 43.8584 172.138 42.732C170.674 41.6056 169.519 40.2679 168.674 38.7191C167.858 37.1702 167.449 35.3961 167.449 33.3967C167.449 31.4536 167.858 29.6231 168.674 27.9053C169.519 26.1594 170.744 24.6246 172.349 23.301C173.983 21.9493 175.968 20.8933 178.305 20.1329C180.643 19.3444 183.304 18.9502 186.289 18.9502C190.4 18.9502 193.949 19.5838 196.934 20.851C199.919 22.0901 202.214 23.8361 203.819 26.0889C205.452 28.3137 206.269 30.8904 206.269 33.8191H192.034C192.034 32.6645 191.836 31.6789 191.442 30.8622C191.076 30.0455 190.471 29.426 189.626 29.0036C188.781 28.553 187.655 28.3277 186.247 28.3277C185.261 28.3277 184.36 28.5108 183.543 28.8769C182.755 29.243 182.121 29.7499 181.642 30.3976C181.164 31.0453 180.924 31.8056 180.924 32.6786C180.924 33.2981 181.065 33.8613 181.347 34.3682C181.656 34.847 182.121 35.2975 182.741 35.7199C183.36 36.1142 184.149 36.4803 185.106 36.8182C186.064 37.128 187.218 37.4096 188.57 37.663C191.639 38.2263 194.512 39.0288 197.187 40.0708C199.862 41.1127 202.031 42.5912 203.692 44.5061C205.382 46.4211 206.227 48.9978 206.227 52.2363C206.227 54.2638 205.762 56.1365 204.833 57.8543C203.903 59.544 202.566 61.0365 200.82 62.3319C199.074 63.5991 196.976 64.5848 194.526 65.2888C192.076 65.9928 189.316 66.3448 186.247 66.3448C181.882 66.3448 178.193 65.5704 175.179 64.0216C172.166 62.4446 169.885 60.4733 168.336 58.1078C166.816 55.7141 166.055 53.2923 166.055 50.8423H179.319C179.375 52.2503 179.713 53.4049 180.333 54.3061C180.981 55.2072 181.839 55.869 182.91 56.2914C183.98 56.7138 185.219 56.925 186.627 56.925C187.922 56.925 188.992 56.742 189.837 56.3759C190.71 56.0098 191.372 55.517 191.822 54.8975C192.273 54.2498 192.498 53.5035 192.498 52.6587ZM226.208 19.795V65.5H211.931V19.795H226.208ZM211.086 8.00971C211.086 5.98213 211.818 4.32064 213.283 3.02525C214.747 1.72985 216.648 1.08215 218.985 1.08215C221.323 1.08215 223.223 1.72985 224.688 3.02525C226.152 4.32064 226.884 5.98213 226.884 8.00971C226.884 10.0373 226.152 11.6988 224.688 12.9942C223.223 14.2896 221.323 14.9373 218.985 14.9373C216.648 14.9373 214.747 14.2896 213.283 12.9942C211.818 11.6988 211.086 10.0373 211.086 8.00971ZM257.342 19.795V29.6795H229.801V19.795H257.342ZM235.588 8.43212H249.823V50.5889C249.823 51.7998 249.964 52.7432 250.245 53.419C250.527 54.0667 251.006 54.5314 251.682 54.813C252.386 55.0664 253.315 55.1931 254.47 55.1931C255.286 55.1931 255.962 55.1791 256.497 55.1509C257.032 55.0946 257.539 55.0242 258.018 54.9397V65.1198C256.807 65.5141 255.54 65.8098 254.216 66.0069C252.893 66.2322 251.484 66.3448 249.992 66.3448C246.951 66.3448 244.346 65.8661 242.177 64.9086C240.037 63.9512 238.404 62.4446 237.277 60.3888C236.151 58.3331 235.588 55.6578 235.588 52.363V8.43212ZM283.406 66.3448C279.689 66.3448 276.366 65.7675 273.438 64.6129C270.509 63.4302 268.031 61.8109 266.003 59.7552C264.004 57.6995 262.469 55.3339 261.399 52.6587C260.357 49.9834 259.836 47.1532 259.836 44.1682V42.563C259.836 39.2119 260.3 36.1142 261.23 33.27C262.159 30.3976 263.539 27.8912 265.369 25.751C267.2 23.6108 269.495 21.9493 272.255 20.7666C275.015 19.5556 278.225 18.9502 281.886 18.9502C285.124 18.9502 288.025 19.4712 290.587 20.5131C293.15 21.5551 295.318 23.0476 297.093 24.9907C298.895 26.9338 300.261 29.2852 301.19 32.045C302.147 34.8047 302.626 37.9024 302.626 41.338V47.1251H265.285V38.2122H288.729V37.1139C288.757 35.5932 288.489 34.2978 287.926 33.2277C287.391 32.1576 286.603 31.3409 285.561 30.7777C284.519 30.2145 283.252 29.9329 281.759 29.9329C280.21 29.9329 278.929 30.2708 277.915 30.9467C276.929 31.6225 276.155 32.5519 275.592 33.7346C275.057 34.8892 274.677 36.2268 274.451 37.7475C274.226 39.2682 274.113 40.8734 274.113 42.563V44.1682C274.113 45.8578 274.339 47.3926 274.789 48.7725C275.268 50.1524 275.944 51.3351 276.817 52.3207C277.718 53.2782 278.788 54.0245 280.027 54.5595C281.294 55.0946 282.731 55.3621 284.336 55.3621C286.279 55.3621 288.194 54.996 290.081 54.2638C291.967 53.5317 293.587 52.3207 294.938 50.6311L301.401 58.319C300.472 59.6426 299.148 60.9239 297.431 62.1629C295.741 63.402 293.713 64.4158 291.348 65.2043C288.982 65.9647 286.335 66.3448 283.406 66.3448Z" fill="#333333"/>
<path d="M330.634 51.0113L343.433 3.9968H360.034L339.293 65.5H328.564L330.634 51.0113ZM319.017 3.9968L331.817 51.0113L333.971 65.5H323.115L302.501 3.9968H319.017ZM377.185 19.795V65.5H362.908V19.795H377.185ZM362.063 8.00971C362.063 5.98213 362.795 4.32064 364.259 3.02525C365.724 1.72985 367.625 1.08215 369.962 1.08215C372.299 1.08215 374.2 1.72985 375.665 3.02525C377.129 4.32064 377.861 5.98213 377.861 8.00971C377.861 10.0373 377.129 11.6988 375.665 12.9942C374.2 14.2896 372.299 14.9373 369.962 14.9373C367.625 14.9373 365.724 14.2896 364.259 12.9942C362.795 11.6988 362.063 10.0373 362.063 8.00971ZM398.603 0.575257V65.5H384.368V0.575257H398.603ZM427.834 19.795L407.981 43.0699L397.59 53.4613L391.38 44.4216L400.039 33.1432L410.769 19.795H427.834ZM412.585 65.5L400.377 44.6751L410.895 37.1984L428.89 65.5H412.585ZM444.183 31.1157V65.5H429.948V19.795H443.254L444.183 31.1157ZM457.7 19.4571L457.447 32.6786C456.884 32.6223 456.123 32.5519 455.166 32.4674C454.208 32.3829 453.406 32.3406 452.758 32.3406C451.097 32.3406 449.661 32.5378 448.45 32.932C447.267 33.2981 446.281 33.8613 445.493 34.6217C444.732 35.3539 444.169 36.2832 443.803 37.4096C443.465 38.536 443.31 39.8455 443.338 41.338L440.762 39.6484C440.762 36.5789 441.057 33.7909 441.649 31.2846C442.268 28.7501 443.141 26.5677 444.268 24.7372C445.394 22.8786 446.76 21.4565 448.365 20.4709C449.97 19.4571 451.773 18.9502 453.772 18.9502C454.476 18.9502 455.166 18.9924 455.842 19.0769C456.546 19.1614 457.165 19.2881 457.7 19.4571ZM482.16 66.3448C478.443 66.3448 475.12 65.7675 472.191 64.6129C469.262 63.4302 466.784 61.8109 464.756 59.7552C462.757 57.6995 461.222 55.3339 460.152 52.6587C459.11 49.9834 458.589 47.1532 458.589 44.1682V42.563C458.589 39.2119 459.054 36.1142 459.983 33.27C460.912 30.3976 462.292 27.8912 464.123 25.751C465.953 23.6108 468.248 21.9493 471.008 20.7666C473.768 19.5556 476.978 18.9502 480.639 18.9502C483.878 18.9502 486.778 19.4712 489.341 20.5131C491.903 21.5551 494.072 23.0476 495.846 24.9907C497.648 26.9338 499.014 29.2852 499.943 32.045C500.901 34.8047 501.38 37.9024 501.38 41.338V47.1251H464.038V38.2122H487.482V37.1139C487.51 35.5932 487.243 34.2978 486.68 33.2277C486.145 32.1576 485.356 31.3409 484.314 30.7777C483.272 30.2145 482.005 29.9329 480.512 29.9329C478.964 29.9329 477.682 30.2708 476.668 30.9467C475.683 31.6225 474.908 32.5519 474.345 33.7346C473.81 34.8892 473.43 36.2268 473.205 37.7475C472.979 39.2682 472.867 40.8734 472.867 42.563V44.1682C472.867 45.8578 473.092 47.3926 473.543 48.7725C474.021 50.1524 474.697 51.3351 475.57 52.3207C476.471 53.2782 477.541 54.0245 478.78 54.5595C480.048 55.0946 481.484 55.3621 483.089 55.3621C485.032 55.3621 486.947 54.996 488.834 54.2638C490.721 53.5317 492.34 52.3207 493.692 50.6311L500.155 58.319C499.225 59.6426 497.902 60.9239 496.184 62.1629C494.494 63.402 492.467 64.4158 490.101 65.2043C487.736 65.9647 485.089 66.3448 482.16 66.3448ZM529.514 19.795V29.6795H501.973V19.795H529.514ZM507.76 8.43212H521.995V50.5889C521.995 51.7998 522.136 52.7432 522.417 53.419C522.699 54.0667 523.178 54.5314 523.854 54.813C524.558 55.0664 525.487 55.1931 526.641 55.1931C527.458 55.1931 528.134 55.1791 528.669 55.1509C529.204 55.0946 529.711 55.0242 530.19 54.9397V65.1198C528.979 65.5141 527.712 65.8098 526.388 66.0069C525.064 66.2322 523.656 66.3448 522.164 66.3448C519.123 66.3448 516.518 65.8661 514.349 64.9086C512.209 63.9512 510.576 62.4446 509.449 60.3888C508.323 58.3331 507.76 55.6578 507.76 52.363V8.43212ZM557.184 54.0104V35.1708C557.184 33.8754 557.001 32.7631 556.634 31.8338C556.268 30.9044 555.691 30.1863 554.903 29.6795C554.114 29.1444 553.058 28.8769 551.734 28.8769C550.664 28.8769 549.749 29.0599 548.989 29.426C548.228 29.7921 547.651 30.3412 547.257 31.0734C546.863 31.8056 546.666 32.7349 546.666 33.8613H532.43C532.43 31.7493 532.895 29.7921 533.824 27.9898C534.782 26.1594 536.133 24.5683 537.879 23.2165C539.653 21.8648 541.766 20.8229 544.216 20.0907C546.694 19.3304 549.453 18.9502 552.495 18.9502C556.128 18.9502 559.366 19.5556 562.21 20.7666C565.083 21.9775 567.35 23.7938 569.011 26.2157C570.673 28.6093 571.503 31.6225 571.503 35.2553V53.9681C571.503 56.9532 571.672 59.2201 572.01 60.769C572.348 62.2897 572.827 63.6273 573.446 64.7819V65.5H559.169C558.493 64.092 557.986 62.3742 557.648 60.3466C557.338 58.2908 557.184 56.1788 557.184 54.0104ZM558.915 37.5786L559 45.182H552.706C551.382 45.182 550.256 45.365 549.327 45.7311C548.426 46.0972 547.693 46.6041 547.13 47.2518C546.595 47.8713 546.201 48.5754 545.947 49.3639C545.722 50.1524 545.609 50.9831 545.609 51.8561C545.609 52.7009 545.807 53.4613 546.201 54.1371C546.623 54.7848 547.186 55.2917 547.891 55.6578C548.595 56.0239 549.383 56.2069 550.256 56.2069C551.833 56.2069 553.171 55.9112 554.269 55.3199C555.395 54.7003 556.254 53.9541 556.846 53.0811C557.437 52.2081 557.733 51.3914 557.733 50.6311L560.859 56.4604C560.295 57.5868 559.648 58.7273 558.915 59.8819C558.211 61.0365 557.324 62.1066 556.254 63.0923C555.212 64.0497 553.931 64.8382 552.41 65.4578C550.89 66.0491 549.045 66.3448 546.877 66.3448C544.061 66.3448 541.47 65.7675 539.104 64.6129C536.767 63.4583 534.894 61.8532 533.486 59.7974C532.078 57.7135 531.374 55.3199 531.374 52.6164C531.374 50.2509 531.797 48.1389 532.641 46.2802C533.514 44.4216 534.824 42.8446 536.57 41.5492C538.316 40.2538 540.541 39.2682 543.244 38.5923C545.947 37.9165 549.13 37.5786 552.79 37.5786H558.915Z" fill="#F5CD00"/>
</svg>
