<svg width="1364" height="300" viewBox="0 0 1364 300" fill="none" xmlns="http://www.w3.org/2000/svg">
<g clip-path="url(#clip0_4698_917)">
<rect width="300" height="300" fill="#1B1B1B"/>
<path d="M87.5659 77.1602H212.434V118.783H87.5659V77.1602Z" fill="#EEEEEE"/>
<path d="M125.027 129.189H212.435V170.811H125.027V129.189Z" fill="#EEEEEE"/>
<path d="M87.5659 129.189H112.54V170.811H87.5659V129.189Z" fill="#FFD600"/>
<path d="M87.5659 181.217H212.434V222.84H87.5659V181.217Z" fill="#EEEEEE"/>
<path d="M395.56 190.18L416.034 96.7019H428.249L434.885 104.68L413.069 199.5H399.584L395.56 190.18ZM390.123 96.7019L407.421 190.886L402.973 199.5H387.37L365.553 96.7019H390.123ZM446.111 190.392L463.268 96.7019H487.767L465.951 199.5H450.418L446.111 190.392ZM437.074 96.7019L458.043 190.745L453.807 199.5H440.322L418.011 104.539L424.93 96.7019H437.074ZM531.117 200.912C524.904 200.912 519.35 199.947 514.455 198.017C509.56 196.04 505.418 193.334 502.029 189.898C498.687 186.462 496.122 182.508 494.333 178.037C492.592 173.565 491.721 168.835 491.721 163.845V161.163C491.721 155.561 492.498 150.384 494.051 145.63C495.604 140.829 497.91 136.64 500.97 133.063C504.029 129.485 507.866 126.708 512.478 124.731C517.091 122.707 522.457 121.695 528.576 121.695C533.989 121.695 538.837 122.566 543.12 124.308C547.403 126.049 551.028 128.544 553.993 131.792C557.005 135.039 559.288 138.97 560.841 143.582C562.442 148.195 563.242 153.373 563.242 159.115V168.788H500.829V153.89H540.013V152.055C540.061 149.513 539.613 147.348 538.672 145.559C537.778 143.771 536.46 142.406 534.718 141.464C532.977 140.523 530.859 140.052 528.364 140.052C525.775 140.052 523.634 140.617 521.939 141.747C520.292 142.876 518.997 144.43 518.056 146.406C517.162 148.336 516.526 150.572 516.15 153.114C515.773 155.655 515.585 158.338 515.585 161.163V163.845C515.585 166.67 515.961 169.235 516.714 171.541C517.515 173.848 518.644 175.824 520.103 177.472C521.61 179.072 523.398 180.32 525.469 181.214C527.587 182.108 529.988 182.555 532.671 182.555C535.918 182.555 539.119 181.943 542.273 180.72C545.426 179.496 548.133 177.472 550.392 174.648L561.194 187.497C559.641 189.71 557.429 191.851 554.558 193.922C551.734 195.993 548.345 197.688 544.391 199.006C540.437 200.277 536.013 200.912 531.117 200.912ZM573.126 91.0537H596.92V180.72L594.448 199.5H573.126V91.0537ZM643.8 160.457V161.939C643.8 167.729 643.212 173 642.035 177.754C640.858 182.508 639.046 186.627 636.598 190.11C634.151 193.546 631.068 196.205 627.349 198.088C623.631 199.971 619.23 200.912 614.147 200.912C609.534 200.912 605.58 199.924 602.285 197.947C598.991 195.923 596.237 193.146 594.025 189.616C591.813 186.038 590.024 181.92 588.659 177.26C587.294 172.553 586.211 167.517 585.411 162.151V160.386C586.211 155.067 587.294 150.078 588.659 145.418C590.024 140.711 591.813 136.593 594.025 133.063C596.237 129.485 598.967 126.708 602.215 124.731C605.51 122.707 609.44 121.695 614.005 121.695C619.136 121.695 623.56 122.66 627.279 124.59C631.044 126.52 634.151 129.226 636.598 132.71C639.046 136.193 640.858 140.288 642.035 144.994C643.212 149.701 643.8 154.855 643.8 160.457ZM620.007 161.939V160.457C620.007 157.679 619.842 155.067 619.512 152.62C619.183 150.172 618.595 148.007 617.747 146.124C616.9 144.241 615.7 142.759 614.147 141.676C612.593 140.594 610.569 140.052 608.075 140.052C605.533 140.052 603.391 140.476 601.65 141.323C599.955 142.17 598.59 143.394 597.555 144.994C596.567 146.548 595.86 148.478 595.437 150.784C595.013 153.043 594.825 155.608 594.872 158.48V164.057C594.778 167.964 595.131 171.306 595.931 174.083C596.731 176.86 598.12 178.978 600.097 180.437C602.074 181.896 604.78 182.626 608.216 182.626C610.758 182.626 612.805 182.132 614.358 181.143C615.959 180.155 617.159 178.743 617.959 176.907C618.759 175.071 619.301 172.883 619.583 170.341C619.866 167.799 620.007 164.999 620.007 161.939ZM694.422 178.037C694.422 176.719 693.975 175.589 693.081 174.648C692.234 173.659 690.727 172.765 688.562 171.965C686.397 171.118 683.361 170.27 679.454 169.423C675.736 168.623 672.229 167.564 668.935 166.246C665.687 164.928 662.839 163.328 660.392 161.445C657.944 159.562 656.014 157.326 654.602 154.738C653.237 152.149 652.555 149.184 652.555 145.842C652.555 142.594 653.237 139.534 654.602 136.663C656.014 133.745 658.062 131.18 660.745 128.968C663.475 126.708 666.793 124.943 670.7 123.672C674.606 122.354 679.054 121.695 684.044 121.695C690.916 121.695 696.846 122.754 701.836 124.873C706.825 126.944 710.661 129.862 713.344 133.627C716.074 137.346 717.439 141.653 717.439 146.548H693.646C693.646 144.618 693.316 142.97 692.657 141.605C692.045 140.24 691.033 139.205 689.621 138.499C688.209 137.746 686.327 137.369 683.973 137.369C682.326 137.369 680.819 137.675 679.454 138.287C678.137 138.899 677.078 139.746 676.277 140.829C675.477 141.911 675.077 143.182 675.077 144.641C675.077 145.677 675.312 146.618 675.783 147.466C676.301 148.266 677.078 149.019 678.113 149.725C679.149 150.384 680.466 150.996 682.067 151.561C683.667 152.078 685.597 152.549 687.856 152.973C692.987 153.914 697.788 155.255 702.259 156.997C706.731 158.738 710.355 161.21 713.132 164.41C715.956 167.611 717.368 171.918 717.368 177.331C717.368 180.72 716.592 183.85 715.038 186.721C713.485 189.545 711.249 192.04 708.331 194.205C705.413 196.323 701.906 197.97 697.811 199.147C693.716 200.324 689.104 200.912 683.973 200.912C676.677 200.912 670.511 199.618 665.475 197.029C660.439 194.393 656.626 191.098 654.037 187.144C651.496 183.144 650.225 179.096 650.225 175.001H672.394C672.488 177.354 673.053 179.284 674.089 180.79C675.171 182.296 676.607 183.403 678.395 184.109C680.184 184.815 682.255 185.168 684.609 185.168C686.774 185.168 688.562 184.862 689.974 184.25C691.433 183.638 692.54 182.814 693.293 181.779C694.046 180.696 694.422 179.449 694.422 178.037ZM753.658 123.107V199.5H729.794V123.107H753.658ZM728.382 103.409C728.382 100.02 729.606 97.2432 732.054 95.0781C734.501 92.9129 737.679 91.8303 741.585 91.8303C745.492 91.8303 748.669 92.9129 751.117 95.0781C753.564 97.2432 754.788 100.02 754.788 103.409C754.788 106.798 753.564 109.575 751.117 111.74C748.669 113.906 745.492 114.988 741.585 114.988C737.679 114.988 734.501 113.906 732.054 111.74C729.606 109.575 728.382 106.798 728.382 103.409ZM808.588 123.107V139.629H762.554V123.107H808.588ZM772.227 104.115H796.02V174.577C796.02 176.601 796.256 178.178 796.726 179.308C797.197 180.39 797.997 181.167 799.127 181.637C800.303 182.061 801.857 182.273 803.787 182.273C805.151 182.273 806.281 182.249 807.175 182.202C808.07 182.108 808.917 181.99 809.717 181.849V198.865C807.693 199.524 805.575 200.018 803.363 200.347C801.151 200.724 798.797 200.912 796.303 200.912C791.219 200.912 786.865 200.112 783.241 198.512C779.664 196.911 776.934 194.393 775.051 190.957C773.168 187.521 772.227 183.049 772.227 177.542V104.115ZM855.044 200.912C848.831 200.912 843.277 199.947 838.382 198.017C833.487 196.04 829.345 193.334 825.956 189.898C822.614 186.462 820.049 182.508 818.26 178.037C816.519 173.565 815.648 168.835 815.648 163.845V161.163C815.648 155.561 816.424 150.384 817.978 145.63C819.531 140.829 821.837 136.64 824.897 133.063C827.956 129.485 831.792 126.708 836.405 124.731C841.018 122.707 846.384 121.695 852.503 121.695C857.916 121.695 862.764 122.566 867.047 124.308C871.33 126.049 874.954 128.544 877.92 131.792C880.932 135.039 883.215 138.97 884.768 143.582C886.369 148.195 887.169 153.373 887.169 159.115V168.788H824.756V153.89H863.94V152.055C863.987 149.513 863.54 147.348 862.599 145.559C861.705 143.771 860.387 142.406 858.645 141.464C856.904 140.523 854.785 140.052 852.291 140.052C849.702 140.052 847.56 140.617 845.866 141.747C844.219 142.876 842.924 144.43 841.983 146.406C841.088 148.336 840.453 150.572 840.076 153.114C839.7 155.655 839.512 158.338 839.512 161.163V163.845C839.512 166.67 839.888 169.235 840.641 171.541C841.441 173.848 842.571 175.824 844.03 177.472C845.536 179.072 847.325 180.32 849.396 181.214C851.514 182.108 853.915 182.555 856.598 182.555C859.845 182.555 863.046 181.943 866.2 180.72C869.353 179.496 872.06 177.472 874.319 174.648L885.121 187.497C883.568 189.71 881.356 191.851 878.485 193.922C875.66 195.993 872.271 197.688 868.318 199.006C864.364 200.277 859.939 200.912 855.044 200.912Z" fill="#FFD600"/>
<path d="M936.873 175.283L958.266 96.7019H986.013L951.347 199.5H933.414L936.873 175.283ZM917.457 96.7019L938.85 175.283L942.451 199.5H924.306L889.852 96.7019H917.457ZM1017.57 123.107V199.5H993.709V123.107H1017.57ZM992.297 103.409C992.297 100.02 993.52 97.2432 995.968 95.0781C998.416 92.9129 1001.59 91.8303 1005.5 91.8303C1009.41 91.8303 1012.58 92.9129 1015.03 95.0781C1017.48 97.2432 1018.7 100.02 1018.7 103.409C1018.7 106.798 1017.48 109.575 1015.03 111.74C1012.58 113.906 1009.41 114.988 1005.5 114.988C1001.59 114.988 998.416 113.906 995.968 111.74C993.52 109.575 992.297 106.798 992.297 103.409ZM1056.26 90.9831V199.5H1032.47V90.9831H1056.26ZM1105.12 123.107L1071.94 162.01L1054.57 179.378L1044.19 164.269L1058.66 145.418L1076.6 123.107H1105.12ZM1079.63 199.5L1059.23 164.693L1076.81 152.196L1106.89 199.5H1079.63ZM1135.34 142.029V199.5H1111.55V123.107H1133.79L1135.34 142.029ZM1157.93 122.543L1157.51 144.641C1156.57 144.547 1155.3 144.43 1153.7 144.288C1152.09 144.147 1150.75 144.077 1149.67 144.077C1146.89 144.077 1144.49 144.406 1142.47 145.065C1140.49 145.677 1138.85 146.618 1137.53 147.889C1136.26 149.113 1135.31 150.666 1134.7 152.549C1134.14 154.432 1133.88 156.62 1133.93 159.115L1129.62 156.291C1129.62 151.16 1130.11 146.501 1131.1 142.312C1132.14 138.075 1133.6 134.428 1135.48 131.368C1137.36 128.262 1139.65 125.885 1142.33 124.237C1145.01 122.543 1148.02 121.695 1151.37 121.695C1152.54 121.695 1153.7 121.766 1154.82 121.907C1156 122.048 1157.04 122.26 1157.93 122.543ZM1201.71 200.912C1195.49 200.912 1189.94 199.947 1185.04 198.017C1180.15 196.04 1176.01 193.334 1172.62 189.898C1169.28 186.462 1166.71 182.508 1164.92 178.037C1163.18 173.565 1162.31 168.835 1162.31 163.845V161.163C1162.31 155.561 1163.09 150.384 1164.64 145.63C1166.19 140.829 1168.5 136.64 1171.56 133.063C1174.62 129.485 1178.45 126.708 1183.07 124.731C1187.68 122.707 1193.04 121.695 1199.16 121.695C1204.58 121.695 1209.42 122.566 1213.71 124.308C1217.99 126.049 1221.62 128.544 1224.58 131.792C1227.59 135.039 1229.88 138.97 1231.43 143.582C1233.03 148.195 1233.83 153.373 1233.83 159.115V168.788H1171.42V153.89H1210.6V152.055C1210.65 149.513 1210.2 147.348 1209.26 145.559C1208.37 143.771 1207.05 142.406 1205.31 141.464C1203.56 140.523 1201.45 140.052 1198.95 140.052C1196.36 140.052 1194.22 140.617 1192.53 141.747C1190.88 142.876 1189.59 144.43 1188.64 146.406C1187.75 148.336 1187.11 150.572 1186.74 153.114C1186.36 155.655 1186.17 158.338 1186.17 161.163V163.845C1186.17 166.67 1186.55 169.235 1187.3 171.541C1188.1 173.848 1189.23 175.824 1190.69 177.472C1192.2 179.072 1193.99 180.32 1196.06 181.214C1198.18 182.108 1200.58 182.555 1203.26 182.555C1206.51 182.555 1209.71 181.943 1212.86 180.72C1216.01 179.496 1218.72 177.472 1220.98 174.648L1231.78 187.497C1230.23 189.71 1228.02 191.851 1225.15 193.922C1222.32 195.993 1218.93 197.688 1214.98 199.006C1211.02 200.277 1206.6 200.912 1201.71 200.912ZM1283.75 123.107V139.629H1237.71V123.107H1283.75ZM1247.39 104.115H1271.18V174.577C1271.18 176.601 1271.41 178.178 1271.88 179.308C1272.36 180.39 1273.16 181.167 1274.29 181.637C1275.46 182.061 1277.02 182.273 1278.95 182.273C1280.31 182.273 1281.44 182.249 1282.33 182.202C1283.23 182.108 1284.08 181.99 1284.88 181.849V198.865C1282.85 199.524 1280.73 200.018 1278.52 200.347C1276.31 200.724 1273.96 200.912 1271.46 200.912C1266.38 200.912 1262.02 200.112 1258.4 198.512C1254.82 196.911 1252.09 194.393 1250.21 190.957C1248.33 187.521 1247.39 183.049 1247.39 177.542V104.115ZM1332.89 180.296V148.807C1332.89 146.642 1332.58 144.783 1331.97 143.229C1331.36 141.676 1330.39 140.476 1329.07 139.629C1327.76 138.734 1325.99 138.287 1323.78 138.287C1321.99 138.287 1320.46 138.593 1319.19 139.205C1317.92 139.817 1316.95 140.735 1316.29 141.959C1315.64 143.182 1315.31 144.736 1315.31 146.618H1291.51C1291.51 143.088 1292.29 139.817 1293.84 136.804C1295.44 133.745 1297.7 131.086 1300.62 128.826C1303.59 126.567 1307.12 124.825 1311.21 123.602C1315.35 122.331 1319.97 121.695 1325.05 121.695C1331.12 121.695 1336.53 122.707 1341.29 124.731C1346.09 126.755 1349.88 129.791 1352.65 133.839C1355.43 137.84 1356.82 142.876 1356.82 148.948V180.225C1356.82 185.215 1357.1 189.004 1357.67 191.592C1358.23 194.134 1359.03 196.37 1360.07 198.3V199.5H1336.2C1335.07 197.147 1334.23 194.275 1333.66 190.886C1333.14 187.45 1332.89 183.92 1332.89 180.296ZM1335.78 152.831L1335.92 165.54H1325.4C1323.19 165.54 1321.31 165.846 1319.75 166.458C1318.25 167.07 1317.02 167.917 1316.08 168.999C1315.19 170.035 1314.53 171.212 1314.11 172.53C1313.73 173.848 1313.54 175.236 1313.54 176.695C1313.54 178.107 1313.87 179.378 1314.53 180.508C1315.24 181.59 1316.18 182.438 1317.35 183.049C1318.53 183.661 1319.85 183.967 1321.31 183.967C1323.94 183.967 1326.18 183.473 1328.01 182.485C1329.9 181.449 1331.33 180.202 1332.32 178.743C1333.31 177.284 1333.8 175.919 1333.8 174.648L1339.03 184.391C1338.09 186.274 1337 188.18 1335.78 190.11C1334.6 192.04 1333.12 193.828 1331.33 195.476C1329.59 197.076 1327.45 198.394 1324.91 199.429C1322.37 200.418 1319.28 200.912 1315.66 200.912C1310.95 200.912 1306.62 199.947 1302.67 198.017C1298.76 196.088 1295.63 193.405 1293.28 189.969C1290.92 186.486 1289.75 182.485 1289.75 177.966C1289.75 174.012 1290.45 170.482 1291.87 167.376C1293.32 164.269 1295.51 161.633 1298.43 159.468C1301.35 157.303 1305.07 155.655 1309.59 154.526C1314.11 153.396 1319.42 152.831 1325.54 152.831H1335.78Z" fill="#1B1B1B"/>
</g>
<defs>
<clipPath id="clip0_4698_917">
<rect width="1364" height="300" fill="white"/>
</clipPath>
</defs>
</svg>
